0
SECTION
2
HEADER
9
$INSUNITS
70
4
0
ENDSEC
0
SECTION
2
TABLES
0
TABLE
2
LTYPE
0
LTYPE
72
65
70
64
2
CONTINUOUS
3
______
73
0
40
0
0
ENDTAB
0
TABLE
2
LAYER
0
ENDTAB
0
ENDSEC
0
SECTION
2
ENTITIES
0
LINE
8
0
10
132.7721176
20
-156.9915272
11
124.6858201
21
-91.1339192
0
LINE
8
0
10
126.4271738
20
-88.9050883
11
144.1589918
21
-86.7278949
0
LINE
8
0
10
145.902122
20
-84.5139958
11
144.8347
21
-75.2449173
0
LINE
8
0
10
146.5778302
20
-73.0310182
11
167.7863558
21
-70.4269387
0
LINE
8
0
10
169.4738145
20
-68.9619204
11
170.3049292
21
-65.8757323
0
LINE
8
0
10
172.1314545
20
-64.3985472
11
191.8497722
21
-63.365154
0
LINE
8
0
10
193.7173276
20
-61.7000383
11
194.8872348
21
-54.7532717
0
LINE
8
0
10
196.894367
20
-53.0857197
11
216.3471139
21
-53.4252687
0
LINE
8
0
10
218.2762014
20
-55.0471619
11
219.4970061
21
-61.3934766
0
LINE
8
0
10
221.4260936
20
-63.0153698
11
238.1445824
21
-63.3071921
0
LINE
8
0
10
240.0697707
20
-64.9093512
11
240.3981984
21
-66.5286978
0
LINE
8
0
10
242.3233867
20
-68.1308569
11
281.1027925
21
-68.8077539
0
LINE
8
0
10
283.0678435
20
-70.8207505
11
282.3996119
21
-171.294666
0
LINE
8
0
10
282.0176901
20
-172.4569353
11
269.1002902
21
-190.236211
0
LINE
8
0
10
266.2433226
20
-190.6306862
11
252.2489949
21
-179.5876691
0
LINE
8
0
10
251.7267971
20
-179.2905539
11
231.8538265
21
-171.6620353
0
LINE
8
0
10
231.3539451
20
-171.5409874
11
211.4002462
21
-169.3646329
0
LINE
8
0
10
209.6280568
20
-167.1673672
11
210.7805592
21
-156.2020389
0
LINE
8
0
10
208.8268938
20
-153.9932948
11
178.5200127
21
-153.4571059
0
LINE
8
0
10
178.2430677
20
-153.4714351
11
134.9987765
21
-158.7331464
0
ARC
8
0
10
126.6709124
20
-90.8901806
40
2
50
96.9999972
51
186.9999972
0
ARC
8
0
10
143.9152532
20
-84.7428026
40
2
50
276.9999972
51
6.5692151
0
ARC
8
0
10
146.8215688
20
-75.0161105
40
2
50
96.9999972
51
186.5692151
0
ARC
8
0
10
167.5426172
20
-68.4418464
40
2
50
276.9999972
51
344.9277416
0
ARC
8
0
10
172.2361265
20
-66.3958063
40
2
50
93.0000026
51
164.9277416
0
ARC
8
0
10
191.7451002
20
-61.3678949
40
2
50
273.0000026
51
350.4405028
0
ARC
8
0
10
196.8594622
20
-55.0854151
40
2
50
89.0000004
51
170.4405028
0
ARC
8
0
10
216.3122091
20
-55.4249641
40
2
50
10.8886608
51
89.0000004
0
ARC
8
0
10
221.4609984
20
-61.0156744
40
2
50
190.8886608
51
269.0000004
0
ARC
8
0
10
238.1096776
20
-65.3068875
40
2
50
11.4649307
51
89.0000004
0
ARC
8
0
10
242.3582915
20
-66.1311615
40
2
50
191.4649307
51
269.0000004
0
ARC
8
0
10
281.0678877
20
-70.8074493
40
2
50
359.6189459
51
89.0000004
0
ARC
8
0
10
280.3996561
20
-171.2813648
40
2
50
323.999998
51
359.6189459
0
ARC
8
0
10
267.4822562
20
-189.0606404
40
2
50
231.7227937
51
323.999998
0
ARC
8
0
10
251.0100613
20
-181.1577149
40
2
50
51.7227937
51
69.0000021
0
ARC
8
0
10
231.1370907
20
-173.5291962
40
2
50
69.0000021
51
83.7753416
0
ARC
8
0
10
211.6171006
20
-167.3764241
40
2
50
173.9999979
51
263.7753416
0
ARC
8
0
10
208.7915154
20
-155.9929819
40
2
50
353.9999979
51
88.9864306
0
ARC
8
0
10
178.4846343
20
-155.456793
40
2
50
88.9864306
51
96.9373112
0
ARC
8
0
10
134.7572099
20
-156.7477886
40
2
50
186.9999972
51
276.9373112
0
ENDSEC
0
EOF