0
SECTION
2
HEADER
9
$INSUNITS
70
4
0
ENDSEC
0
SECTION
2
TABLES
0
TABLE
2
LTYPE
0
LTYPE
72
65
70
64
2
CONTINUOUS
3
______
73
0
40
0
0
ENDTAB
0
TABLE
2
LAYER
0
ENDTAB
0
ENDSEC
0
SECTION
2
ENTITIES
0
LINE
8
0
10
132.7721176
20
-156.9915272
11
124.6858201
21
-91.1339192
0
LINE
8
0
10
126.4271738
20
-88.9050883
11
144.1589918
21
-86.7278949
0
LINE
8
0
10
145.902122
20
-84.5139958
11
144.8347
21
-75.2449173
0
LINE
8
0
10
146.5778302
20
-73.0310182
11
167.7863558
21
-70.4269387
0
LINE
8
0
10
169.4738145
20
-68.9619204
11
170.3049292
21
-65.8757323
0
LINE
8
0
10
172.1314545
20
-64.3985472
11
191.8497722
21
-63.365154
0
LINE
8
0
10
193.7173276
20
-61.7000383
11
194.8872348
21
-54.7532717
0
LINE
8
0
10
196.894367
20
-53.0857197
11
216.3471139
21
-53.4252687
0
LINE
8
0
10
218.2762014
20
-55.0471619
11
219.4970061
21
-61.3934766
0
LINE
8
0
10
221.4260936
20
-63.0153698
11
238.1445824
21
-63.3071921
0
LINE
8
0
10
240.0697707
20
-64.9093512
11
240.3981984
21
-66.5286978
0
LINE
8
0
10
242.3233867
20
-68.1308569
11
281.1027925
21
-68.8077539
0
LINE
8
0
10
283.0678435
20
-70.8207505
11
282.3996119
21
-171.294666
0
LINE
8
0
10
282.0176901
20
-172.4569353
11
269.1002902
21
-190.236211
0
LINE
8
0
10
266.2433226
20
-190.6306862
11
252.2489949
21
-179.5876691
0
LINE
8
0
10
251.7267971
20
-179.2905539
11
231.8538265
21
-171.6620353
0
LINE
8
0
10
231.3539451
20
-171.5409874
11
211.4002462
21
-169.3646329
0
LINE
8
0
10
209.6280568
20
-167.1673672
11
210.7805592
21
-156.2020389
0
LINE
8
0
10
208.8268938
20
-153.9932948
11
178.5200127
21
-153.4571059
0
LINE
8
0
10
178.2430677
20
-153.4714351
11
134.9987765
21
-158.7331464
0
ARC
8
0
10
126.6709124
20
-90.8901806
40
2
50
96.9999972
51
186.9999972
0
ARC
8
0
10
143.9152532
20
-84.7428026
40
2
50
276.9999972
51
6.5692151
0
ARC
8
0
10
146.8215688
20
-75.0161105
40
2
50
96.9999972
51
186.5692151
0
ARC
8
0
10
167.5426172
20
-68.4418464
40
2
50
276.9999972
51
344.9277416
0
ARC
8
0
10
172.2361265
20
-66.3958063
40
2
50
93.0000026
51
164.9277416
0
ARC
8
0
10
191.7451002
20
-61.3678949
40
2
50
273.0000026
51
350.4405028
0
ARC
8
0
10
196.8594622
20
-55.0854151
40
2
50
89.0000004
51
170.4405028
0
ARC
8
0
10
216.3122091
20
-55.4249641
40
2
50
10.8886608
51
89.0000004
0
ARC
8
0
10
221.4609984
20
-61.0156744
40
2
50
190.8886608
51
269.0000004
0
ARC
8
0
10
238.1096776
20
-65.3068875
40
2
50
11.4649307
51
89.0000004
0
ARC
8
0
10
242.3582915
20
-66.1311615
40
2
50
191.4649307
51
269.0000004
0
ARC
8
0
10
281.0678877
20
-70.8074493
40
2
50
359.6189459
51
89.0000004
0
ARC
8
0
10
280.3996561
20
-171.2813648
40
2
50
323.999998
51
359.6189459
0
ARC
8
0
10
267.4822562
20
-189.0606404
40
2
50
231.7227937
51
323.999998
0
ARC
8
0
10
251.0100613
20
-181.1577149
40
2
50
51.7227937
51
69.0000021
0
ARC
8
0
10
231.1370907
20
-173.5291962
40
2
50
69.0000021
51
83.7753416
0
ARC
8
0
10
211.6171006
20
-167.3764241
40
2
50
173.9999979
51
263.7753416
0
ARC
8
0
10
208.7915154
20
-155.9929819
40
2
50
353.9999979
51
88.9864306
0
ARC
8
0
10
178.4846343
20
-155.456793
40
2
50
88.9864306
51
96.9373112
0
ARC
8
0
10
134.7572099
20
-156.7477886
40
2
50
186.9999972
51
276.9373112
0
LINE
8
0
10
134.9042567
20
-148.9193289
11
153.2663605
21
-146.6647461
0
LINE
8
0
10
153.2663605
20
-146.6647461
11
151.0117777
21
-128.3026423
0
LINE
8
0
10
151.0117777
20
-128.3026423
11
132.6496739
21
-130.5572251
0
LINE
8
0
10
132.6496739
20
-130.5572251
11
134.9042567
21
-148.9193289
0
LINE
8
0
10
132.4668698
20
-129.0684058
11
150.8289736
21
-126.813823
0
LINE
8
0
10
150.8289736
20
-126.813823
11
148.5743908
21
-108.4517192
0
LINE
8
0
10
148.5743908
20
-108.4517192
11
130.212287
21
-110.706302
0
LINE
8
0
10
130.212287
20
-110.706302
11
132.4668698
21
-129.0684058
0
LINE
8
0
10
130.0294829
20
-109.2174828
11
148.3915867
21
-106.9629
0
LINE
8
0
10
148.3915867
20
-106.9629
11
146.1370039
21
-88.6007962
0
LINE
8
0
10
146.1370039
20
-88.6007962
11
127.7749001
21
-90.855379
0
LINE
8
0
10
127.7749001
20
-90.855379
11
130.0294829
21
-109.2174828
0
LINE
8
0
10
156.5642505
20
-153.0101319
11
174.9263543
21
-150.7555491
0
LINE
8
0
10
174.9263543
20
-150.7555491
11
172.6717715
21
-132.3934453
0
LINE
8
0
10
172.6717715
20
-132.3934453
11
154.3096677
21
-134.6480281
0
LINE
8
0
10
154.3096677
20
-134.6480281
11
156.5642505
21
-153.0101319
0
LINE
8
0
10
154.1268636
20
-133.1592089
11
172.4889674
21
-130.9046261
0
LINE
8
0
10
172.4889674
20
-130.9046261
11
170.2343846
21
-112.5425223
0
LINE
8
0
10
170.2343846
20
-112.5425223
11
151.8722808
21
-114.7971051
0
LINE
8
0
10
151.8722808
20
-114.7971051
11
154.1268636
21
-133.1592089
0
LINE
8
0
10
151.6894767
20
-113.3082858
11
170.0515805
21
-111.053703
0
LINE
8
0
10
170.0515805
20
-111.053703
11
167.7969977
21
-92.6915992
0
LINE
8
0
10
167.7969977
20
-92.6915992
11
149.4348939
21
-94.946182
0
LINE
8
0
10
149.4348939
20
-94.946182
11
151.6894767
21
-113.3082858
0
LINE
8
0
10
149.2520899
20
-93.4573628
11
167.6141937
21
-91.20278
0
LINE
8
0
10
167.6141937
20
-91.20278
11
165.3596109
21
-72.8406762
0
LINE
8
0
10
165.3596109
20
-72.8406762
11
146.9975071
21
-75.095259
0
LINE
8
0
10
146.9975071
20
-75.095259
11
149.2520899
21
-93.4573628
0
LINE
8
0
10
176.0989178
20
-144.9012324
11
194.5735642
21
-143.9330172
0
LINE
8
0
10
194.5735642
20
-143.9330172
11
193.605349
21
-125.4583708
0
LINE
8
0
10
193.605349
20
-125.4583708
11
175.1307026
21
-126.426586
0
LINE
8
0
10
175.1307026
20
-126.426586
11
176.0989178
21
-144.9012324
0
LINE
8
0
10
175.0521987
20
-124.9286417
11
193.5268451
21
-123.9604265
0
LINE
8
0
10
193.5268451
20
-123.9604265
11
192.5586299
21
-105.4857801
0
LINE
8
0
10
192.5586299
20
-105.4857801
11
174.0839835
21
-106.4539953
0
LINE
8
0
10
174.0839835
20
-106.4539953
11
175.0521987
21
-124.9286417
0
LINE
8
0
10
174.0054796
20
-104.956051
11
192.480126
21
-103.9878358
0
LINE
8
0
10
192.480126
20
-103.9878358
11
191.5119108
21
-85.5131894
0
LINE
8
0
10
191.5119108
20
-85.5131894
11
173.0372644
21
-86.4814046
0
LINE
8
0
10
173.0372644
20
-86.4814046
11
174.0054796
21
-104.956051
0
LINE
8
0
10
172.9587605
20
-84.9834603
11
191.4334069
21
-84.0152451
0
LINE
8
0
10
191.4334069
20
-84.0152451
11
190.4651917
21
-65.5405987
0
LINE
8
0
10
190.4651917
20
-65.5405987
11
171.9905453
21
-66.5088139
0
LINE
8
0
10
171.9905453
20
-66.5088139
11
172.9587605
21
-84.9834603
0
LINE
8
0
10
195.9161362
20
-133.6809224
11
214.4133185
21
-134.0037919
0
LINE
8
0
10
214.4133185
20
-134.0037919
11
214.736188
21
-115.5066096
0
LINE
8
0
10
214.736188
20
-115.5066096
11
196.2390057
21
-115.1837401
0
LINE
8
0
10
196.2390057
20
-115.1837401
11
195.9161362
21
-133.6809224
0
LINE
8
0
10
196.2651843
20
-113.6839684
11
214.7623666
21
-114.0068379
0
LINE
8
0
10
214.7623666
20
-114.0068379
11
215.0852361
21
-95.5096556
0
LINE
8
0
10
215.0852361
20
-95.5096556
11
196.5880538
21
-95.1867861
0
LINE
8
0
10
196.5880538
20
-95.1867861
11
196.2651843
21
-113.6839684
0
LINE
8
0
10
196.6142324
20
-93.6870145
11
215.1114147
21
-94.009884
0
LINE
8
0
10
215.1114147
20
-94.009884
11
215.4342842
21
-75.5127017
0
LINE
8
0
10
215.4342842
20
-75.5127017
11
196.9371019
21
-75.1898322
0
LINE
8
0
10
196.9371019
20
-75.1898322
11
196.6142324
21
-93.6870145
0
LINE
8
0
10
196.9632805
20
-73.6900606
11
215.4604628
21
-74.0129301
0
LINE
8
0
10
215.4604628
20
-74.0129301
11
215.7833323
21
-55.5157478
0
LINE
8
0
10
215.7833323
20
-55.5157478
11
197.28615
21
-55.1928783
0
LINE
8
0
10
197.28615
20
-55.1928783
11
196.9632805
21
-73.6900606
0
LINE
8
0
10
216.7471399
20
-143.545976
11
235.2443222
21
-143.8688455
0
LINE
8
0
10
235.2443222
20
-143.8688455
11
235.5671917
21
-125.3716632
0
LINE
8
0
10
235.5671917
20
-125.3716632
11
217.0700094
21
-125.0487937
0
LINE
8
0
10
217.0700094
20
-125.0487937
11
216.7471399
21
-143.545976
0
LINE
8
0
10
217.096188
20
-123.549022
11
235.5933703
21
-123.8718915
0
LINE
8
0
10
235.5933703
20
-123.8718915
11
235.9162398
21
-105.3747092
0
LINE
8
0
10
235.9162398
20
-105.3747092
11
217.4190575
21
-105.0518397
0
LINE
8
0
10
217.4190575
20
-105.0518397
11
217.096188
21
-123.549022
0
LINE
8
0
10
217.4452361
20
-103.5520681
11
235.9424184
21
-103.8749376
0
LINE
8
0
10
235.9424184
20
-103.8749376
11
236.2652879
21
-85.3777553
0
LINE
8
0
10
236.2652879
20
-85.3777553
11
217.7681056
21
-85.0548858
0
LINE
8
0
10
217.7681056
20
-85.0548858
11
217.4452361
21
-103.5520681
0
LINE
8
0
10
217.7942842
20
-83.5551142
11
236.2914665
21
-83.8779837
0
LINE
8
0
10
236.2914665
20
-83.8779837
11
236.614336
21
-65.3808014
0
LINE
8
0
10
236.614336
20
-65.3808014
11
218.1171537
21
-65.0579319
0
LINE
8
0
10
218.1171537
20
-65.0579319
11
217.7942842
21
-83.5551142
0
LINE
8
0
10
237.6610425
20
-148.6617531
11
256.1582248
21
-148.9846226
0
LINE
8
0
10
256.1582248
20
-148.9846226
11
256.4810943
21
-130.4874403
0
LINE
8
0
10
256.4810943
20
-130.4874403
11
237.983912
21
-130.1645708
0
LINE
8
0
10
237.983912
20
-130.1645708
11
237.6610425
21
-148.6617531
0
LINE
8
0
10
238.0100906
20
-128.6647992
11
256.5072729
21
-128.9876687
0
LINE
8
0
10
256.5072729
20
-128.9876687
11
256.8301424
21
-110.4904864
0
LINE
8
0
10
256.8301424
20
-110.4904864
11
238.3329601
21
-110.1676169
0
LINE
8
0
10
238.3329601
20
-110.1676169
11
238.0100906
21
-128.6647992
0
LINE
8
0
10
238.3591387
20
-108.6678452
11
256.856321
21
-108.9907147
0
LINE
8
0
10
256.856321
20
-108.9907147
11
257.1791905
21
-90.4935324
0
LINE
8
0
10
257.1791905
20
-90.4935324
11
238.6820082
21
-90.1706629
0
LINE
8
0
10
238.6820082
20
-90.1706629
11
238.3591387
21
-108.6678452
0
LINE
8
0
10
238.7081869
20
-88.6708913
11
257.2053692
21
-88.9937608
0
LINE
8
0
10
257.2053692
20
-88.9937608
11
257.5282387
21
-70.4965785
0
LINE
8
0
10
257.5282387
20
-70.4965785
11
239.0310564
21
-70.173709
0
LINE
8
0
10
239.0310564
20
-70.173709
11
238.7081869
21
-88.6708913
0
LINE
8
0
10
233.1593057
20
-149.9247691
11
214.7606507
21
-147.9909925
0
LINE
8
0
10
214.7606507
20
-147.9909925
11
212.8268741
21
-166.3896475
0
LINE
8
0
10
212.8268741
20
-166.3896475
11
231.2255291
21
-168.3234241
0
LINE
8
0
10
231.2255291
20
-168.3234241
11
233.1593057
21
-149.9247691
0
LINE
8
0
10
256.8571141
20
-158.1231663
11
239.5858762
21
-151.4933592
0
LINE
8
0
10
239.5858762
20
-151.4933592
11
232.9560691
21
-168.7645971
0
LINE
8
0
10
232.9560691
20
-168.7645971
11
250.227307
21
-175.3944042
0
LINE
8
0
10
250.227307
20
-175.3944042
11
256.8571141
21
-158.1231663
0
LINE
8
0
10
278.065252
20
-172.6229647
11
263.0984376
21
-161.7489375
0
LINE
8
0
10
263.0984376
20
-161.7489375
11
252.2244104
21
-176.7157519
0
LINE
8
0
10
252.2244104
20
-176.7157519
11
267.1912248
21
-187.5897791
0
LINE
8
0
10
267.1912248
20
-187.5897791
11
278.065252
21
-172.6229647
0
ENDSEC
0
EOF