0
SECTION
2
HEADER
9
$INSUNITS
70
4
0
ENDSEC
0
SECTION
2
TABLES
0
TABLE
2
LTYPE
0
LTYPE
72
65
70
64
2
CONTINUOUS
3
______
73
0
40
0
0
ENDTAB
0
TABLE
2
LAYER
0
ENDTAB
0
ENDSEC
0
SECTION
2
ENTITIES
0
LINE
8
0
10
134.6865875
20
-149.1979328
11
153.5449644
21
-146.8824153
0
LINE
8
0
10
153.5449644
20
-146.8824153
11
151.2294469
21
-128.0240384
0
LINE
8
0
10
151.2294469
20
-128.0240384
11
132.37107
21
-130.3395559
0
LINE
8
0
10
132.37107
20
-130.3395559
11
134.6865875
21
-149.1979328
0
LINE
8
0
10
132.2492006
20
-129.3470097
11
151.1075775
21
-127.0314922
0
LINE
8
0
10
151.1075775
20
-127.0314922
11
148.79206
21
-108.1731153
0
LINE
8
0
10
148.79206
20
-108.1731153
11
129.9336831
21
-110.4886328
0
LINE
8
0
10
129.9336831
20
-110.4886328
11
132.2492006
21
-129.3470097
0
LINE
8
0
10
129.8118137
20
-109.4960867
11
148.6701906
21
-107.1805692
0
LINE
8
0
10
148.6701906
20
-107.1805692
11
146.3546731
21
-88.3221923
0
LINE
8
0
10
146.3546731
20
-88.3221923
11
127.4962962
21
-90.6377098
0
LINE
8
0
10
127.4962962
20
-90.6377098
11
129.8118137
21
-109.4960867
0
LINE
8
0
10
156.3465813
20
-153.2887358
11
175.2049582
21
-150.9732183
0
LINE
8
0
10
175.2049582
20
-150.9732183
11
172.8894407
21
-132.1148414
0
LINE
8
0
10
172.8894407
20
-132.1148414
11
154.0310638
21
-134.4303589
0
LINE
8
0
10
154.0310638
20
-134.4303589
11
156.3465813
21
-153.2887358
0
LINE
8
0
10
153.9091944
20
-133.4378128
11
172.7675713
21
-131.1222953
0
LINE
8
0
10
172.7675713
20
-131.1222953
11
170.4520538
21
-112.2639184
0
LINE
8
0
10
170.4520538
20
-112.2639184
11
151.5936769
21
-114.5794359
0
LINE
8
0
10
151.5936769
20
-114.5794359
11
153.9091944
21
-133.4378128
0
LINE
8
0
10
151.4718075
20
-113.5868897
11
170.3301844
21
-111.2713722
0
LINE
8
0
10
170.3301844
20
-111.2713722
11
168.0146669
21
-92.4129953
0
LINE
8
0
10
168.0146669
20
-92.4129953
11
149.15629
21
-94.7285128
0
LINE
8
0
10
149.15629
20
-94.7285128
11
151.4718075
21
-113.5868897
0
LINE
8
0
10
149.0344207
20
-93.7359667
11
167.8927976
21
-91.4204492
0
LINE
8
0
10
167.8927976
20
-91.4204492
11
165.5772801
21
-72.5620723
0
LINE
8
0
10
165.5772801
20
-72.5620723
11
146.7189032
21
-74.8775898
0
LINE
8
0
10
146.7189032
20
-74.8775898
11
149.0344207
21
-93.7359667
0
LINE
8
0
10
175.8623444
20
-145.1639738
11
194.8363056
21
-144.1695906
0
LINE
8
0
10
194.8363056
20
-144.1695906
11
193.8419224
21
-125.1956294
0
LINE
8
0
10
193.8419224
20
-125.1956294
11
174.8679612
21
-126.1900126
0
LINE
8
0
10
174.8679612
20
-126.1900126
11
175.8623444
21
-145.1639738
0
LINE
8
0
10
174.8156253
20
-125.1913831
11
193.7895865
21
-124.1969999
0
LINE
8
0
10
193.7895865
20
-124.1969999
11
192.7952033
21
-105.2230387
0
LINE
8
0
10
192.7952033
20
-105.2230387
11
173.8212421
21
-106.2174219
0
LINE
8
0
10
173.8212421
20
-106.2174219
11
174.8156253
21
-125.1913831
0
LINE
8
0
10
173.7689062
20
-105.2187924
11
192.7428674
21
-104.2244092
0
LINE
8
0
10
192.7428674
20
-104.2244092
11
191.7484842
21
-85.250448
0
LINE
8
0
10
191.7484842
20
-85.250448
11
172.774523
21
-86.2448312
0
LINE
8
0
10
172.774523
20
-86.2448312
11
173.7689062
21
-105.2187924
0
LINE
8
0
10
172.7221871
20
-85.2462017
11
191.6961483
21
-84.2518185
0
LINE
8
0
10
191.6961483
20
-84.2518185
11
190.7017651
21
-65.2778573
0
LINE
8
0
10
190.7017651
20
-65.2778573
11
171.7278039
21
-66.2722405
0
LINE
8
0
10
171.7278039
20
-66.2722405
11
172.7221871
21
-85.2462017
0
LINE
8
0
10
195.6618111
20
-133.9265212
11
214.6589173
21
-134.258117
0
LINE
8
0
10
214.6589173
20
-134.258117
11
214.9905131
21
-115.2610108
0
LINE
8
0
10
214.9905131
20
-115.2610108
11
195.9934069
21
-114.929415
0
LINE
8
0
10
195.9934069
20
-114.929415
11
195.6618111
21
-133.9265212
0
LINE
8
0
10
196.0108592
20
-113.9295672
11
215.0079654
21
-114.261163
0
LINE
8
0
10
215.0079654
20
-114.261163
11
215.3395612
21
-95.2640568
0
LINE
8
0
10
215.3395612
20
-95.2640568
11
196.342455
21
-94.932461
0
LINE
8
0
10
196.342455
20
-94.932461
11
196.0108592
21
-113.9295672
0
LINE
8
0
10
196.3599073
20
-93.9326133
11
215.3570135
21
-94.2642091
0
LINE
8
0
10
215.3570135
20
-94.2642091
11
215.6886093
21
-75.2671029
0
LINE
8
0
10
215.6886093
20
-75.2671029
11
196.6915031
21
-74.9355071
0
LINE
8
0
10
196.6915031
20
-74.9355071
11
196.3599073
21
-93.9326133
0
LINE
8
0
10
196.7089554
20
-73.9356594
11
215.7060616
21
-74.2672552
0
LINE
8
0
10
215.7060616
20
-74.2672552
11
216.0376574
21
-55.270149
0
LINE
8
0
10
216.0376574
20
-55.270149
11
197.0405512
21
-54.9385532
0
LINE
8
0
10
197.0405512
20
-54.9385532
11
196.7089554
21
-73.9356594
0
LINE
8
0
10
216.4928148
20
-143.7915748
11
235.489921
21
-144.1231706
0
LINE
8
0
10
235.489921
20
-144.1231706
11
235.8215168
21
-125.1260644
0
LINE
8
0
10
235.8215168
20
-125.1260644
11
216.8244106
21
-124.7944686
0
LINE
8
0
10
216.8244106
20
-124.7944686
11
216.4928148
21
-143.7915748
0
LINE
8
0
10
216.8418629
20
-123.7946208
11
235.8389691
21
-124.1262166
0
LINE
8
0
10
235.8389691
20
-124.1262166
11
236.1705649
21
-105.1291104
0
LINE
8
0
10
236.1705649
20
-105.1291104
11
217.1734587
21
-104.7975146
0
LINE
8
0
10
217.1734587
20
-104.7975146
11
216.8418629
21
-123.7946208
0
LINE
8
0
10
217.190911
20
-103.7976669
11
236.1880172
21
-104.1292627
0
LINE
8
0
10
236.1880172
20
-104.1292627
11
236.519613
21
-85.1321565
0
LINE
8
0
10
236.519613
20
-85.1321565
11
217.5225068
21
-84.8005607
0
LINE
8
0
10
217.5225068
20
-84.8005607
11
217.190911
21
-103.7976669
0
LINE
8
0
10
217.5399591
20
-83.800713
11
236.5370653
21
-84.1323088
0
LINE
8
0
10
236.5370653
20
-84.1323088
11
236.8686611
21
-65.1352026
0
LINE
8
0
10
236.8686611
20
-65.1352026
11
217.8715549
21
-64.8036068
0
LINE
8
0
10
217.8715549
20
-64.8036068
11
217.5399591
21
-83.800713
0
LINE
8
0
10
237.4067174
20
-148.9073519
11
256.4038236
21
-149.2389477
0
LINE
8
0
10
256.4038236
20
-149.2389477
11
256.7354194
21
-130.2418415
0
LINE
8
0
10
256.7354194
20
-130.2418415
11
237.7383132
21
-129.9102457
0
LINE
8
0
10
237.7383132
20
-129.9102457
11
237.4067174
21
-148.9073519
0
LINE
8
0
10
237.7557655
20
-128.910398
11
256.7528717
21
-129.2419938
0
LINE
8
0
10
256.7528717
20
-129.2419938
11
257.0844675
21
-110.2448876
0
LINE
8
0
10
257.0844675
20
-110.2448876
11
238.0873613
21
-109.9132918
0
LINE
8
0
10
238.0873613
20
-109.9132918
11
237.7557655
21
-128.910398
0
LINE
8
0
10
238.1048136
20
-108.913444
11
257.1019198
21
-109.2450398
0
LINE
8
0
10
257.1019198
20
-109.2450398
11
257.4335156
21
-90.2479336
0
LINE
8
0
10
257.4335156
20
-90.2479336
11
238.4364094
21
-89.9163378
0
LINE
8
0
10
238.4364094
20
-89.9163378
11
238.1048136
21
-108.913444
0
LINE
8
0
10
238.4538618
20
-88.9164901
11
257.450968
21
-89.2480859
0
LINE
8
0
10
257.450968
20
-89.2480859
11
257.7825638
21
-70.2509797
0
LINE
8
0
10
257.7825638
20
-70.2509797
11
238.7854576
21
-69.9193839
0
LINE
8
0
10
238.7854576
20
-69.9193839
11
238.4538618
21
-88.9164901
0
LINE
8
0
10
233.4340683
20
-149.7022707
11
214.5381523
21
-147.7162299
0
LINE
8
0
10
214.5381523
20
-147.7162299
11
212.5521115
21
-166.6121459
0
LINE
8
0
10
212.5521115
20
-166.6121459
11
231.4480275
21
-168.5981867
0
LINE
8
0
10
231.4480275
20
-168.5981867
11
233.4340683
21
-149.7022707
0
LINE
8
0
10
257.1801012
20
-157.9793632
11
239.4420731
21
-151.1703721
0
LINE
8
0
10
239.4420731
20
-151.1703721
11
232.633082
21
-168.9084002
0
LINE
8
0
10
232.633082
20
-168.9084002
11
250.3711101
21
-175.7173913
0
LINE
8
0
10
250.3711101
20
-175.7173913
11
257.1801012
21
-157.9793632
0
LINE
8
0
10
278.4144525
20
-172.5676568
11
263.0431297
21
-161.399737
0
LINE
8
0
10
263.0431297
20
-161.399737
11
251.8752099
21
-176.7710598
0
LINE
8
0
10
251.8752099
20
-176.7710598
11
267.2465327
21
-187.9389796
0
LINE
8
0
10
267.2465327
20
-187.9389796
11
278.4144525
21
-172.5676568
0
ENDSEC
0
EOF