%TF.GenerationSoftware,KiCad,Pcbnew,9.0.0*%
%TF.CreationDate,2025-03-06T12:11:22-05:00*%
%TF.ProjectId,proto1,70726f74-6f31-42e6-9b69-6361645f7063,v1.0.0*%
%TF.SameCoordinates,Original*%
%TF.FileFunction,Profile,NP*%
%FSLAX46Y46*%
G04 Gerber Fmt 4.6, Leading zero omitted, Abs format (unit mm)*
G04 Created by KiCad (PCBNEW 9.0.0) date 2025-03-06 12:11:22*
%MOMM*%
%LPD*%
G01*
G04 APERTURE LIST*
%TA.AperFunction,Profile*%
%ADD10C,0.150000*%
%TD*%
G04 APERTURE END LIST*
D10*
X132772118Y-156991527D02*
X124685820Y-91133919D01*
X126427174Y-88905088D02*
X144158992Y-86727895D01*
X145902122Y-84513996D02*
X144834700Y-75244917D01*
X146577830Y-73031018D02*
X167786356Y-70426939D01*
X169473815Y-68961920D02*
X170304929Y-65875732D01*
X172131455Y-64398547D02*
X191849772Y-63365154D01*
X193717328Y-61700038D02*
X194887235Y-54753272D01*
X196894367Y-53085720D02*
X216347114Y-53425269D01*
X218276201Y-55047162D02*
X219497006Y-61393477D01*
X221426094Y-63015370D02*
X238144582Y-63307192D01*
X240069771Y-64909351D02*
X240398198Y-66528698D01*
X242323387Y-68130857D02*
X281102793Y-68807754D01*
X283067844Y-70820751D02*
X282399612Y-171294666D01*
X282017690Y-172456935D02*
X269100290Y-190236211D01*
X266243323Y-190630686D02*
X252248995Y-179587669D01*
X251726797Y-179290554D02*
X231853827Y-171662035D01*
X231353945Y-171540987D02*
X211400246Y-169364633D01*
X209628057Y-167167367D02*
X210780559Y-156202039D01*
X208826894Y-153993295D02*
X178520013Y-153457106D01*
X178243068Y-153471435D02*
X134998777Y-158733146D01*
X124685819Y-91133919D02*
G75*
G02*
X126427174Y-88905088I1985093J243738D01*
G01*
X145902121Y-84513996D02*
G75*
G02*
X144158992Y-86727895I-1986868J-228807D01*
G01*
X144834700Y-75244918D02*
G75*
G02*
X146577830Y-73031018I1986869J228807D01*
G01*
X169473815Y-68961920D02*
G75*
G02*
X167786356Y-70426939I-1931198J520074D01*
G01*
X170304930Y-65875732D02*
G75*
G02*
X172131455Y-64398547I1931197J-520074D01*
G01*
X193717327Y-61700038D02*
G75*
G02*
X191849772Y-63365154I-1972227J332143D01*
G01*
X194887235Y-54753271D02*
G75*
G02*
X196894367Y-53085720I1972227J-332144D01*
G01*
X216347114Y-53425269D02*
G75*
G02*
X218276201Y-55047162I-34905J-1999695D01*
G01*
X221426094Y-63015369D02*
G75*
G02*
X219497006Y-61393477I34904J1999695D01*
G01*
X238144583Y-63307192D02*
G75*
G02*
X240069771Y-64909351I-34905J-1999695D01*
G01*
X242323387Y-68130858D02*
G75*
G02*
X240398198Y-66528698I34905J1999696D01*
G01*
X281102794Y-68807753D02*
G75*
G02*
X283067844Y-70820751I-34906J-1999696D01*
G01*
X282399611Y-171294666D02*
G75*
G02*
X282017690Y-172456935I-1999955J13301D01*
G01*
X269100290Y-190236210D02*
G75*
G02*
X266243323Y-190630686I-1618034J1175570D01*
G01*
X251726797Y-179290554D02*
G75*
G02*
X252248995Y-179587669I-716736J-1867161D01*
G01*
X231353945Y-171540987D02*
G75*
G02*
X231853826Y-171662035I-216854J-1988209D01*
G01*
X211400247Y-169364633D02*
G75*
G02*
X209628057Y-167167367I216854J1988209D01*
G01*
X208826893Y-153993295D02*
G75*
G02*
X210780559Y-156202039I-35378J-1999687D01*
G01*
X178243068Y-153471435D02*
G75*
G02*
X178520013Y-153457106I241566J-1985358D01*
G01*
X134998776Y-158733146D02*
G75*
G02*
X132772118Y-156991527I-241566J1985357D01*
G01*
M02*
