%TF.GenerationSoftware,KiCad,Pcbnew,9.0.0*%
%TF.CreationDate,2025-03-06T12:11:22-05:00*%
%TF.ProjectId,proto1,70726f74-6f31-42e6-9b69-6361645f7063,v1.0.0*%
%TF.SameCoordinates,Original*%
%TF.FileFunction,Soldermask,Top*%
%TF.FilePolarity,Negative*%
%FSLAX46Y46*%
G04 Gerber Fmt 4.6, Leading zero omitted, Abs format (unit mm)*
G04 Created by KiCad (PCBNEW 9.0.0) date 2025-03-06 12:11:22*
%MOMM*%
%LPD*%
G01*
G04 APERTURE LIST*
G04 Aperture macros list*
%AMHorizOval*
0 Thick line with rounded ends*
0 $1 width*
0 $2 $3 position (X,Y) of the first rounded end (center of the circle)*
0 $4 $5 position (X,Y) of the second rounded end (center of the circle)*
0 Add line between two ends*
20,1,$1,$2,$3,$4,$5,0*
0 Add two circle primitives to create the rounded ends*
1,1,$1,$2,$3*
1,1,$1,$4,$5*%
%AMRotRect*
0 Rectangle, with rotation*
0 The origin of the aperture is its center*
0 $1 length*
0 $2 width*
0 $3 Rotation angle, in degrees counterclockwise*
0 Add horizontal line*
21,1,$1,$2,0,0,$3*%
G04 Aperture macros list end*
%ADD10C,3.987800*%
%ADD11C,1.701800*%
%ADD12C,3.000000*%
%ADD13RotRect,2.550000X2.500000X7.000000*%
%ADD14RotRect,2.550000X2.500000X3.000000*%
%ADD15RotRect,2.550000X2.500000X359.000000*%
%ADD16RotRect,2.550000X2.500000X174.000000*%
%ADD17RotRect,2.550000X2.500000X159.000000*%
%ADD18RotRect,2.550000X2.500000X144.000000*%
%ADD19RotRect,0.900000X1.200000X7.000000*%
%ADD20RotRect,1.778000X1.778000X7.000000*%
%ADD21C,1.905000*%
%ADD22RotRect,0.900000X1.200000X3.000000*%
%ADD23RotRect,1.778000X1.778000X3.000000*%
%ADD24RotRect,0.900000X1.200000X359.000000*%
%ADD25RotRect,1.778000X1.778000X359.000000*%
%ADD26RotRect,0.900000X1.200000X174.000000*%
%ADD27RotRect,1.778000X1.778000X174.000000*%
%ADD28RotRect,0.900000X1.200000X159.000000*%
%ADD29RotRect,1.778000X1.778000X159.000000*%
%ADD30RotRect,0.900000X1.200000X144.000000*%
%ADD31RotRect,1.778000X1.778000X144.000000*%
%ADD32C,1.752600*%
%ADD33HorizOval,1.700000X0.000000X0.000000X0.000000X0.000000X0*%
%ADD34RotRect,1.700000X1.700000X359.000000*%
%ADD35RotRect,1.200000X1.700000X89.000000*%
%ADD36HorizOval,1.200000X-0.249962X0.004363X0.249962X-0.004363X0*%
%ADD37C,2.600000*%
%ADD38C,4.400000*%
G04 APERTURE END LIST*
D10*
%TO.C,S1*%
X142958017Y-138610986D03*
D11*
X148000151Y-137991890D03*
X137915883Y-139230082D03*
D12*
X144859988Y-133259303D03*
X138866868Y-136554241D03*
X139817854Y-133878400D03*
X146430070Y-135625597D03*
D13*
X149680658Y-135226474D03*
X136540466Y-134280812D03*
%TD*%
D10*
%TO.C,S2*%
X140520630Y-118760063D03*
D11*
X145562764Y-118140967D03*
X135478496Y-119379159D03*
D12*
X142422601Y-113408380D03*
X136429481Y-116703318D03*
X137380467Y-114027477D03*
X143992683Y-115774674D03*
D13*
X147243271Y-115375551D03*
X134103079Y-114429889D03*
%TD*%
D10*
%TO.C,S3*%
X138083243Y-98909140D03*
D11*
X143125377Y-98290044D03*
X133041109Y-99528236D03*
D12*
X139985214Y-93557457D03*
X133992094Y-96852395D03*
X134943080Y-94176554D03*
X141555296Y-95923751D03*
D13*
X144805884Y-95524628D03*
X131665692Y-94578966D03*
%TD*%
D10*
%TO.C,S4*%
X164618011Y-142701789D03*
D11*
X169660145Y-142082693D03*
X159575877Y-143320885D03*
D12*
X166519982Y-137350106D03*
X160526862Y-140645044D03*
X161477848Y-137969203D03*
X168090064Y-139716400D03*
D13*
X171340652Y-139317277D03*
X158200460Y-138371615D03*
%TD*%
D10*
%TO.C,S5*%
X162180624Y-122850866D03*
D11*
X167222758Y-122231770D03*
X157138490Y-123469962D03*
D12*
X164082595Y-117499183D03*
X158089475Y-120794121D03*
X159040461Y-118118280D03*
X165652677Y-119865477D03*
D13*
X168903265Y-119466354D03*
X155763073Y-118520692D03*
%TD*%
D10*
%TO.C,S6*%
X159743237Y-102999943D03*
D11*
X164785371Y-102380847D03*
X154701103Y-103619039D03*
D12*
X161645208Y-97648260D03*
X155652088Y-100943198D03*
X156603074Y-98267357D03*
X163215290Y-100014554D03*
D13*
X166465878Y-99615431D03*
X153325686Y-98669769D03*
%TD*%
D10*
%TO.C,S7*%
X157305850Y-83149020D03*
D11*
X162347984Y-82529924D03*
X152263716Y-83768116D03*
D12*
X159207821Y-77797337D03*
X153214701Y-81092275D03*
X154165687Y-78416434D03*
X160777903Y-80163631D03*
D13*
X164028491Y-79764508D03*
X150888299Y-78818846D03*
%TD*%
D10*
%TO.C,S8*%
X184852133Y-135179802D03*
D11*
X189925171Y-134913935D03*
X179779095Y-135445669D03*
D12*
X187122785Y-129973831D03*
X180914421Y-132842683D03*
X182049747Y-130239697D03*
X188523978Y-132443883D03*
D14*
X191794490Y-132272483D03*
X178752273Y-130412511D03*
%TD*%
D10*
%TO.C,S9*%
X183805414Y-115207211D03*
D11*
X188878452Y-114941344D03*
X178732376Y-115473078D03*
D12*
X186076066Y-110001240D03*
X179867702Y-112870092D03*
X181003028Y-110267106D03*
X187477259Y-112471292D03*
D14*
X190747771Y-112299892D03*
X177705554Y-110439920D03*
%TD*%
D10*
%TO.C,S10*%
X182758695Y-95234620D03*
D11*
X187831733Y-94968753D03*
X177685657Y-95500487D03*
D12*
X185029347Y-90028649D03*
X178820983Y-92897501D03*
X179956309Y-90294515D03*
X186430540Y-92498701D03*
D14*
X189701052Y-92327301D03*
X176658835Y-90467329D03*
%TD*%
D10*
%TO.C,S11*%
X181711976Y-75262030D03*
D11*
X186785014Y-74996163D03*
X176638938Y-75527897D03*
D12*
X183982628Y-70056059D03*
X177774264Y-72924911D03*
X178909590Y-70321925D03*
X185383821Y-72526111D03*
D14*
X188654333Y-72354711D03*
X175612116Y-70494739D03*
%TD*%
D10*
%TO.C,S12*%
X205326162Y-124593766D03*
D11*
X210405388Y-124682424D03*
X200246936Y-124505108D03*
D12*
X207954433Y-119558869D03*
X201561071Y-121987659D03*
X202875207Y-119470211D03*
X209179911Y-122120647D03*
D15*
X212454412Y-122177803D03*
X199573710Y-119412583D03*
%TD*%
D10*
%TO.C,S13*%
X205675210Y-104596812D03*
D11*
X210754436Y-104685470D03*
X200595984Y-104508154D03*
D12*
X208303481Y-99561915D03*
X201910119Y-101990705D03*
X203224255Y-99473257D03*
X209528959Y-102123693D03*
D15*
X212803460Y-102180849D03*
X199922758Y-99415629D03*
%TD*%
D10*
%TO.C,S14*%
X206024258Y-84599858D03*
D11*
X211103484Y-84688516D03*
X200945032Y-84511200D03*
D12*
X208652529Y-79564961D03*
X202259167Y-81993751D03*
X203573303Y-79476303D03*
X209878007Y-82126739D03*
D15*
X213152508Y-82183895D03*
X200271806Y-79418675D03*
%TD*%
D10*
%TO.C,S15*%
X206373306Y-64602904D03*
D11*
X211452532Y-64691562D03*
X201294080Y-64514246D03*
D12*
X209001577Y-59568007D03*
X202608215Y-61996797D03*
X203922351Y-59479349D03*
X210227055Y-62129785D03*
D15*
X213501556Y-62186941D03*
X200620854Y-59421721D03*
%TD*%
D10*
%TO.C,S16*%
X226157166Y-134458820D03*
D11*
X231236392Y-134547478D03*
X221077940Y-134370162D03*
D12*
X228785437Y-129423923D03*
X222392075Y-131852713D03*
X223706211Y-129335265D03*
X230010915Y-131985701D03*
D15*
X233285416Y-132042857D03*
X220404714Y-129277637D03*
%TD*%
D10*
%TO.C,S17*%
X226506214Y-114461866D03*
D11*
X231585440Y-114550524D03*
X221426988Y-114373208D03*
D12*
X229134485Y-109426969D03*
X222741123Y-111855759D03*
X224055259Y-109338311D03*
X230359963Y-111988747D03*
D15*
X233634464Y-112045903D03*
X220753762Y-109280683D03*
%TD*%
D10*
%TO.C,S18*%
X226855262Y-94464912D03*
D11*
X231934488Y-94553570D03*
X221776036Y-94376254D03*
D12*
X229483533Y-89430015D03*
X223090171Y-91858805D03*
X224404307Y-89341357D03*
X230709011Y-91991793D03*
D15*
X233983512Y-92048949D03*
X221102810Y-89283729D03*
%TD*%
D10*
%TO.C,S19*%
X227204310Y-74467958D03*
D11*
X232283536Y-74556616D03*
X222125084Y-74379300D03*
D12*
X229832581Y-69433061D03*
X223439219Y-71861851D03*
X224753355Y-69344403D03*
X231058059Y-71994839D03*
D15*
X234332560Y-72051995D03*
X221451858Y-69286775D03*
%TD*%
D10*
%TO.C,S20*%
X247071068Y-139574597D03*
D11*
X252150294Y-139663255D03*
X241991842Y-139485939D03*
D12*
X249699339Y-134539700D03*
X243305977Y-136968490D03*
X244620113Y-134451042D03*
X250924817Y-137101478D03*
D15*
X254199318Y-137158634D03*
X241318616Y-134393414D03*
%TD*%
D10*
%TO.C,S21*%
X247420117Y-119577643D03*
D11*
X252499343Y-119666301D03*
X242340891Y-119488985D03*
D12*
X250048388Y-114542746D03*
X243655026Y-116971536D03*
X244969162Y-114454088D03*
X251273866Y-117104524D03*
D15*
X254548367Y-117161680D03*
X241667665Y-114396460D03*
%TD*%
D10*
%TO.C,S22*%
X247769165Y-99580689D03*
D11*
X252848391Y-99669347D03*
X242689939Y-99492031D03*
D12*
X250397436Y-94545792D03*
X244004074Y-96974582D03*
X245318210Y-94457134D03*
X251622914Y-97107570D03*
D15*
X254897415Y-97164726D03*
X242016713Y-94399506D03*
%TD*%
D10*
%TO.C,S23*%
X248118213Y-79583735D03*
D11*
X253197439Y-79672393D03*
X243038987Y-79495077D03*
D12*
X250746484Y-74548838D03*
X244353122Y-76977628D03*
X245667258Y-74460180D03*
X251971962Y-77110616D03*
D15*
X255246463Y-77167772D03*
X242365761Y-74402552D03*
%TD*%
D10*
%TO.C,S24*%
X222993090Y-158157208D03*
D11*
X217940919Y-157626203D03*
X228045261Y-158688213D03*
D12*
X219936000Y-162943877D03*
X226516716Y-161081547D03*
X224988171Y-163474882D03*
X218938459Y-160285040D03*
D16*
X215681400Y-159942709D03*
X228272082Y-163820035D03*
%TD*%
D10*
%TO.C,S25*%
X244906592Y-163443882D03*
D11*
X240164003Y-161623373D03*
X249649181Y-165264391D03*
D12*
X240714789Y-167276216D03*
X247553279Y-167180558D03*
X245457377Y-169096725D03*
X240439396Y-164449794D03*
D17*
X237381920Y-163276139D03*
X248540060Y-170280056D03*
%TD*%
D10*
%TO.C,S26*%
X265144831Y-174669358D03*
D11*
X261035025Y-171683409D03*
X269254637Y-177655307D03*
D12*
X260103979Y-177286190D03*
X266734211Y-178963723D03*
X264213785Y-180272139D03*
X260569502Y-174484799D03*
D18*
X257919971Y-172559803D03*
X266885159Y-182213006D03*
%TD*%
D19*
%TO.C,D1*%
X141929663Y-143774800D03*
X145205065Y-143372632D03*
D20*
X139785763Y-144038038D03*
D21*
X147348965Y-143109394D03*
%TD*%
D19*
%TO.C,D2*%
X139492276Y-123923877D03*
X142767678Y-123521709D03*
D20*
X137348376Y-124187115D03*
D21*
X144911578Y-123258471D03*
%TD*%
D19*
%TO.C,D3*%
X137054889Y-104072954D03*
X140330291Y-103670786D03*
D20*
X134910989Y-104336192D03*
D21*
X142474191Y-103407548D03*
%TD*%
D19*
%TO.C,D4*%
X163589657Y-147865603D03*
X166865059Y-147463435D03*
D20*
X161445757Y-148128841D03*
D21*
X169008959Y-147200197D03*
%TD*%
D19*
%TO.C,D5*%
X161152270Y-128014680D03*
X164427672Y-127612512D03*
D20*
X159008370Y-128277918D03*
D21*
X166571572Y-127349274D03*
%TD*%
D19*
%TO.C,D6*%
X158714883Y-108163757D03*
X161990285Y-107761589D03*
D20*
X156570983Y-108426995D03*
D21*
X164134185Y-107498351D03*
%TD*%
D19*
%TO.C,D7*%
X156277496Y-88312834D03*
X159552898Y-87910666D03*
D20*
X154133596Y-88576072D03*
D21*
X161696798Y-87647428D03*
%TD*%
D22*
%TO.C,D8*%
X183466074Y-140259303D03*
X186761552Y-140086595D03*
D23*
X181309034Y-140372349D03*
D21*
X188918592Y-139973549D03*
%TD*%
D22*
%TO.C,D9*%
X182419355Y-120286713D03*
X185714833Y-120114005D03*
D23*
X180262315Y-120399759D03*
D21*
X187871873Y-120000959D03*
%TD*%
D22*
%TO.C,D10*%
X181372636Y-100314122D03*
X184668114Y-100141414D03*
D23*
X179215596Y-100427168D03*
D21*
X186825154Y-100028368D03*
%TD*%
D22*
%TO.C,D11*%
X180325917Y-80341531D03*
X183621395Y-80168823D03*
D23*
X178168877Y-80454577D03*
D21*
X185778435Y-80055777D03*
%TD*%
D24*
%TO.C,D12*%
X203589151Y-129564209D03*
X206888649Y-129621801D03*
D25*
X201429480Y-129526511D03*
D21*
X209048320Y-129659499D03*
%TD*%
D24*
%TO.C,D13*%
X203938199Y-109567255D03*
X207237697Y-109624847D03*
D25*
X201778528Y-109529557D03*
D21*
X209397368Y-109662545D03*
%TD*%
D24*
%TO.C,D14*%
X204287247Y-89570301D03*
X207586745Y-89627893D03*
D25*
X202127576Y-89532603D03*
D21*
X209746416Y-89665591D03*
%TD*%
D24*
%TO.C,D15*%
X204636295Y-69573347D03*
X207935793Y-69630939D03*
D25*
X202476624Y-69535649D03*
D21*
X210095464Y-69668637D03*
%TD*%
D24*
%TO.C,D16*%
X224420155Y-139429262D03*
X227719653Y-139486854D03*
D25*
X222260484Y-139391564D03*
D21*
X229879324Y-139524552D03*
%TD*%
D24*
%TO.C,D17*%
X224769203Y-119432308D03*
X228068701Y-119489900D03*
D25*
X222609532Y-119394610D03*
D21*
X230228372Y-119527598D03*
%TD*%
D24*
%TO.C,D18*%
X225118251Y-99435354D03*
X228417749Y-99492946D03*
D25*
X222958580Y-99397656D03*
D21*
X230577420Y-99530644D03*
%TD*%
D24*
%TO.C,D19*%
X225467299Y-79438400D03*
X228766797Y-79495992D03*
D25*
X223307628Y-79400702D03*
D21*
X230926468Y-79533690D03*
%TD*%
D24*
%TO.C,D20*%
X245334057Y-144545039D03*
X248633555Y-144602631D03*
D25*
X243174386Y-144507341D03*
D21*
X250793226Y-144640329D03*
%TD*%
D24*
%TO.C,D21*%
X245683106Y-124548085D03*
X248982604Y-124605677D03*
D25*
X243523435Y-124510387D03*
D21*
X251142275Y-124643375D03*
%TD*%
D24*
%TO.C,D22*%
X246032154Y-104551131D03*
X249331652Y-104608723D03*
D25*
X243872483Y-104513433D03*
D21*
X251491323Y-104646421D03*
%TD*%
D24*
%TO.C,D23*%
X246381202Y-84554177D03*
X249680700Y-84611769D03*
D25*
X244221531Y-84516479D03*
D21*
X251840371Y-84649467D03*
%TD*%
D26*
%TO.C,D24*%
X225156693Y-153357071D03*
X221874771Y-153012127D03*
D27*
X227304860Y-153582852D03*
D21*
X219726604Y-152786346D03*
%TD*%
D28*
%TO.C,D25*%
X248238839Y-159367287D03*
X245158023Y-158184673D03*
D29*
X250255372Y-160141362D03*
D21*
X243141490Y-157410598D03*
%TD*%
D30*
%TO.C,D26*%
X269418636Y-171594119D03*
X266748880Y-169654427D03*
D31*
X271166113Y-172863735D03*
D21*
X265001403Y-168384811D03*
%TD*%
D32*
%TO.C,MCU1*%
X277661737Y-75628738D03*
X277617407Y-78168351D03*
X277573078Y-80707964D03*
X277528749Y-83247577D03*
X277484420Y-85787191D03*
X277440091Y-88326804D03*
X277395762Y-90866417D03*
X277351433Y-93406030D03*
X277307104Y-95945643D03*
X277262775Y-98485256D03*
X277218445Y-101024869D03*
X277174116Y-103564483D03*
X261936437Y-103298508D03*
X261980767Y-100758895D03*
X262025096Y-98219282D03*
X262069425Y-95679669D03*
X262113754Y-93140055D03*
X262158083Y-90600442D03*
X262202412Y-88060829D03*
X262246741Y-85521216D03*
X262291070Y-82981603D03*
X262335399Y-80441990D03*
X262379729Y-77902377D03*
X262424058Y-75362763D03*
X264564709Y-98263611D03*
X267104322Y-98307940D03*
X269643935Y-98352269D03*
%TD*%
D33*
%TO.C,niceView1*%
X264410953Y-107072269D03*
X266950566Y-107116598D03*
X269490179Y-107160927D03*
D34*
X272029792Y-107205256D03*
D33*
X274569405Y-107249585D03*
%TD*%
D35*
%TO.C,JST1*%
X266482670Y-116159810D03*
D36*
X266517574Y-114160114D03*
%TD*%
D37*
%TO.C,_1*%
X144694655Y-152754768D03*
D38*
X144694655Y-152754768D03*
%TD*%
D37*
%TO.C,_2*%
X205077465Y-138841596D03*
D38*
X205077465Y-138841596D03*
%TD*%
D37*
%TO.C,_3*%
X268751943Y-149454485D03*
D38*
X268751943Y-149454485D03*
%TD*%
D37*
%TO.C,_4*%
X237530185Y-87400139D03*
D38*
X237530185Y-87400139D03*
%TD*%
D37*
%TO.C,_5*%
X168954449Y-76681202D03*
D38*
X168954449Y-76681202D03*
%TD*%
M02*
