%TF.GenerationSoftware,KiCad,Pcbnew,9.0.0*%
%TF.CreationDate,2025-03-06T12:11:22-05:00*%
%TF.ProjectId,proto1,70726f74-6f31-42e6-9b69-6361645f7063,v1.0.0*%
%TF.SameCoordinates,Original*%
%TF.FileFunction,Legend,Bot*%
%TF.FilePolarity,Positive*%
%FSLAX46Y46*%
G04 Gerber Fmt 4.6, Leading zero omitted, Abs format (unit mm)*
G04 Created by KiCad (PCBNEW 9.0.0) date 2025-03-06 12:11:22*
%MOMM*%
%LPD*%
G01*
G04 APERTURE LIST*
%ADD10C,0.150000*%
%ADD11C,0.100000*%
%ADD12C,0.381000*%
%ADD13C,1.752600*%
G04 APERTURE END LIST*
D10*
X265115989Y-75772101D02*
X265389264Y-75395861D01*
X265573063Y-75780079D02*
X265587025Y-74980201D01*
X265587025Y-74980201D02*
X265282309Y-74974882D01*
X265282309Y-74974882D02*
X265205465Y-75011642D01*
X265205465Y-75011642D02*
X265166711Y-75049067D01*
X265166711Y-75049067D02*
X265127292Y-75124581D01*
X265127292Y-75124581D02*
X265125297Y-75238849D01*
X265125297Y-75238849D02*
X265162057Y-75315693D01*
X265162057Y-75315693D02*
X265199482Y-75354447D01*
X265199482Y-75354447D02*
X265274996Y-75393866D01*
X265274996Y-75393866D02*
X265579711Y-75399185D01*
X264815263Y-75538245D02*
X264434369Y-75531597D01*
X264887453Y-75768112D02*
X264634789Y-74963580D01*
X264634789Y-74963580D02*
X264354201Y-75758804D01*
X264177716Y-74955601D02*
X263973307Y-75752155D01*
X263973307Y-75752155D02*
X263830922Y-75178154D01*
X263830922Y-75178154D02*
X263668591Y-75746837D01*
X263668591Y-75746837D02*
X263492106Y-74943634D01*
X265161136Y-77551255D02*
X265237980Y-77514496D01*
X265237980Y-77514496D02*
X265352248Y-77516490D01*
X265352248Y-77516490D02*
X265465851Y-77556574D01*
X265465851Y-77556574D02*
X265540701Y-77634083D01*
X265540701Y-77634083D02*
X265577460Y-77710927D01*
X265577460Y-77710927D02*
X265612890Y-77863949D01*
X265612890Y-77863949D02*
X265610896Y-77978218D01*
X265610896Y-77978218D02*
X265570147Y-78129910D01*
X265570147Y-78129910D02*
X265530728Y-78205424D01*
X265530728Y-78205424D02*
X265453219Y-78280274D01*
X265453219Y-78280274D02*
X265338286Y-78316368D01*
X265338286Y-78316368D02*
X265262107Y-78315039D01*
X265262107Y-78315039D02*
X265148504Y-78274955D01*
X265148504Y-78274955D02*
X265111079Y-78236200D01*
X265111079Y-78236200D02*
X265115733Y-77969574D01*
X265115733Y-77969574D02*
X265268091Y-77972234D01*
X264766945Y-78306396D02*
X264780906Y-77506518D01*
X264780906Y-77506518D02*
X264309871Y-78298417D01*
X264309871Y-78298417D02*
X264323833Y-77498539D01*
X263928977Y-78291769D02*
X263942939Y-77491891D01*
X263942939Y-77491891D02*
X263752492Y-77488566D01*
X263752492Y-77488566D02*
X263637559Y-77524661D01*
X263637559Y-77524661D02*
X263560050Y-77599511D01*
X263560050Y-77599511D02*
X263520631Y-77675025D01*
X263520631Y-77675025D02*
X263479882Y-77826717D01*
X263479882Y-77826717D02*
X263477888Y-77940986D01*
X263477888Y-77940986D02*
X263513318Y-78094008D01*
X263513318Y-78094008D02*
X263550077Y-78170852D01*
X263550077Y-78170852D02*
X263624927Y-78248361D01*
X263624927Y-78248361D02*
X263738530Y-78288445D01*
X263738530Y-78288445D02*
X263928977Y-78291769D01*
X264798795Y-80847338D02*
X265072069Y-80471098D01*
X265255868Y-80855317D02*
X265269830Y-80055438D01*
X265269830Y-80055438D02*
X264965114Y-80050120D01*
X264965114Y-80050120D02*
X264888271Y-80086879D01*
X264888271Y-80086879D02*
X264849516Y-80124304D01*
X264849516Y-80124304D02*
X264810097Y-80199818D01*
X264810097Y-80199818D02*
X264808103Y-80314086D01*
X264808103Y-80314086D02*
X264844862Y-80390930D01*
X264844862Y-80390930D02*
X264882287Y-80429684D01*
X264882287Y-80429684D02*
X264957801Y-80469103D01*
X264957801Y-80469103D02*
X265262517Y-80474422D01*
X264494744Y-80803930D02*
X264379811Y-80840025D01*
X264379811Y-80840025D02*
X264189364Y-80836701D01*
X264189364Y-80836701D02*
X264113850Y-80797282D01*
X264113850Y-80797282D02*
X264076425Y-80758527D01*
X264076425Y-80758527D02*
X264039665Y-80681684D01*
X264039665Y-80681684D02*
X264040995Y-80605505D01*
X264040995Y-80605505D02*
X264080414Y-80529991D01*
X264080414Y-80529991D02*
X264119169Y-80492566D01*
X264119169Y-80492566D02*
X264196012Y-80455806D01*
X264196012Y-80455806D02*
X264349035Y-80420376D01*
X264349035Y-80420376D02*
X264425879Y-80383617D01*
X264425879Y-80383617D02*
X264464633Y-80346192D01*
X264464633Y-80346192D02*
X264504052Y-80270678D01*
X264504052Y-80270678D02*
X264505382Y-80194499D01*
X264505382Y-80194499D02*
X264468622Y-80117655D01*
X264468622Y-80117655D02*
X264431198Y-80078901D01*
X264431198Y-80078901D02*
X264355683Y-80039482D01*
X264355683Y-80039482D02*
X264165236Y-80036158D01*
X264165236Y-80036158D02*
X264050303Y-80072253D01*
X263822431Y-80030174D02*
X263365358Y-80022196D01*
X263579933Y-80826063D02*
X263593895Y-80026185D01*
X265447705Y-82598930D02*
X265167117Y-83394154D01*
X265167117Y-83394154D02*
X264914452Y-82589622D01*
X264178121Y-83300689D02*
X264215546Y-83339444D01*
X264215546Y-83339444D02*
X264329149Y-83379528D01*
X264329149Y-83379528D02*
X264405328Y-83380857D01*
X264405328Y-83380857D02*
X264520261Y-83344763D01*
X264520261Y-83344763D02*
X264597770Y-83269913D01*
X264597770Y-83269913D02*
X264637189Y-83194399D01*
X264637189Y-83194399D02*
X264677938Y-83042706D01*
X264677938Y-83042706D02*
X264679932Y-82928438D01*
X264679932Y-82928438D02*
X264644502Y-82775416D01*
X264644502Y-82775416D02*
X264607743Y-82698572D01*
X264607743Y-82698572D02*
X264532894Y-82621063D01*
X264532894Y-82621063D02*
X264419290Y-82580979D01*
X264419290Y-82580979D02*
X264343111Y-82579650D01*
X264343111Y-82579650D02*
X264228178Y-82615744D01*
X264228178Y-82615744D02*
X264189424Y-82653169D01*
X263378243Y-83286727D02*
X263415668Y-83325482D01*
X263415668Y-83325482D02*
X263529271Y-83365566D01*
X263529271Y-83365566D02*
X263605450Y-83366895D01*
X263605450Y-83366895D02*
X263720383Y-83330801D01*
X263720383Y-83330801D02*
X263797892Y-83255951D01*
X263797892Y-83255951D02*
X263837311Y-83180437D01*
X263837311Y-83180437D02*
X263878060Y-83028745D01*
X263878060Y-83028745D02*
X263880054Y-82914476D01*
X263880054Y-82914476D02*
X263844624Y-82761454D01*
X263844624Y-82761454D02*
X263807865Y-82684610D01*
X263807865Y-82684610D02*
X263733015Y-82607101D01*
X263733015Y-82607101D02*
X263619412Y-82567017D01*
X263619412Y-82567017D02*
X263543233Y-82565688D01*
X263543233Y-82565688D02*
X263428300Y-82601783D01*
X263428300Y-82601783D02*
X263389546Y-82639207D01*
X265136750Y-85133889D02*
X265060571Y-85132560D01*
X265060571Y-85132560D02*
X264983727Y-85169319D01*
X264983727Y-85169319D02*
X264944973Y-85206744D01*
X264944973Y-85206744D02*
X264905553Y-85282258D01*
X264905553Y-85282258D02*
X264864805Y-85433951D01*
X264864805Y-85433951D02*
X264861480Y-85624398D01*
X264861480Y-85624398D02*
X264896910Y-85777421D01*
X264896910Y-85777421D02*
X264933670Y-85854264D01*
X264933670Y-85854264D02*
X264971095Y-85893019D01*
X264971095Y-85893019D02*
X265046609Y-85932438D01*
X265046609Y-85932438D02*
X265122788Y-85933767D01*
X265122788Y-85933767D02*
X265199631Y-85897008D01*
X265199631Y-85897008D02*
X265238386Y-85859583D01*
X265238386Y-85859583D02*
X265277805Y-85784069D01*
X265277805Y-85784069D02*
X265318554Y-85632376D01*
X265318554Y-85632376D02*
X265321878Y-85441929D01*
X265321878Y-85441929D02*
X265286448Y-85288906D01*
X265286448Y-85288906D02*
X265249688Y-85212063D01*
X265249688Y-85212063D02*
X265212264Y-85173308D01*
X265212264Y-85173308D02*
X265136750Y-85133889D01*
X264603497Y-85124581D02*
X264108335Y-85115938D01*
X264108335Y-85115938D02*
X264369642Y-85425308D01*
X264369642Y-85425308D02*
X264255373Y-85423313D01*
X264255373Y-85423313D02*
X264178530Y-85460073D01*
X264178530Y-85460073D02*
X264139775Y-85497497D01*
X264139775Y-85497497D02*
X264100356Y-85573012D01*
X264100356Y-85573012D02*
X264097032Y-85763459D01*
X264097032Y-85763459D02*
X264133792Y-85840302D01*
X264133792Y-85840302D02*
X264171216Y-85879057D01*
X264171216Y-85879057D02*
X264246730Y-85918476D01*
X264246730Y-85918476D02*
X264475267Y-85922465D01*
X264475267Y-85922465D02*
X264552111Y-85885705D01*
X264552111Y-85885705D02*
X264590865Y-85848281D01*
X263332584Y-85902519D02*
X263789657Y-85910498D01*
X263561120Y-85906508D02*
X263575082Y-85106630D01*
X263575082Y-85106630D02*
X263649266Y-85222228D01*
X263649266Y-85222228D02*
X263724116Y-85299737D01*
X263724116Y-85299737D02*
X263799630Y-85339156D01*
X265092421Y-87673502D02*
X265016242Y-87672173D01*
X265016242Y-87672173D02*
X264939398Y-87708932D01*
X264939398Y-87708932D02*
X264900644Y-87746357D01*
X264900644Y-87746357D02*
X264861224Y-87821871D01*
X264861224Y-87821871D02*
X264820476Y-87973564D01*
X264820476Y-87973564D02*
X264817151Y-88164011D01*
X264817151Y-88164011D02*
X264852581Y-88317034D01*
X264852581Y-88317034D02*
X264889341Y-88393877D01*
X264889341Y-88393877D02*
X264926766Y-88432632D01*
X264926766Y-88432632D02*
X265002280Y-88472051D01*
X265002280Y-88472051D02*
X265078459Y-88473380D01*
X265078459Y-88473380D02*
X265155302Y-88436621D01*
X265155302Y-88436621D02*
X265194057Y-88399196D01*
X265194057Y-88399196D02*
X265233476Y-88323682D01*
X265233476Y-88323682D02*
X265274225Y-88171989D01*
X265274225Y-88171989D02*
X265277549Y-87981542D01*
X265277549Y-87981542D02*
X265242119Y-87828519D01*
X265242119Y-87828519D02*
X265205359Y-87751676D01*
X265205359Y-87751676D02*
X265167935Y-87712921D01*
X265167935Y-87712921D02*
X265092421Y-87673502D01*
X264519749Y-87739708D02*
X264482324Y-87700954D01*
X264482324Y-87700954D02*
X264406810Y-87661535D01*
X264406810Y-87661535D02*
X264216363Y-87658211D01*
X264216363Y-87658211D02*
X264139520Y-87694970D01*
X264139520Y-87694970D02*
X264100765Y-87732395D01*
X264100765Y-87732395D02*
X264061346Y-87807909D01*
X264061346Y-87807909D02*
X264060016Y-87884088D01*
X264060016Y-87884088D02*
X264096111Y-87999021D01*
X264096111Y-87999021D02*
X264545206Y-88464073D01*
X264545206Y-88464073D02*
X264050044Y-88455429D01*
X263669149Y-88448781D02*
X263516791Y-88446121D01*
X263516791Y-88446121D02*
X263441277Y-88406702D01*
X263441277Y-88406702D02*
X263403853Y-88367948D01*
X263403853Y-88367948D02*
X263329668Y-88252350D01*
X263329668Y-88252350D02*
X263294238Y-88099327D01*
X263294238Y-88099327D02*
X263299557Y-87794612D01*
X263299557Y-87794612D02*
X263338976Y-87719098D01*
X263338976Y-87719098D02*
X263377731Y-87681673D01*
X263377731Y-87681673D02*
X263454574Y-87644914D01*
X263454574Y-87644914D02*
X263606932Y-87647573D01*
X263606932Y-87647573D02*
X263682446Y-87686992D01*
X263682446Y-87686992D02*
X263719871Y-87725746D01*
X263719871Y-87725746D02*
X263756630Y-87802590D01*
X263756630Y-87802590D02*
X263753306Y-87993037D01*
X263753306Y-87993037D02*
X263713887Y-88068551D01*
X263713887Y-88068551D02*
X263675133Y-88105976D01*
X263675133Y-88105976D02*
X263598289Y-88142736D01*
X263598289Y-88142736D02*
X263445931Y-88140076D01*
X263445931Y-88140076D02*
X263370417Y-88100657D01*
X263370417Y-88100657D02*
X263332993Y-88061903D01*
X263332993Y-88061903D02*
X263296233Y-87985059D01*
X265048092Y-90213115D02*
X264971913Y-90211786D01*
X264971913Y-90211786D02*
X264895069Y-90248545D01*
X264895069Y-90248545D02*
X264856315Y-90285970D01*
X264856315Y-90285970D02*
X264816895Y-90361484D01*
X264816895Y-90361484D02*
X264776147Y-90513177D01*
X264776147Y-90513177D02*
X264772822Y-90703624D01*
X264772822Y-90703624D02*
X264808252Y-90856647D01*
X264808252Y-90856647D02*
X264845012Y-90933490D01*
X264845012Y-90933490D02*
X264882437Y-90972245D01*
X264882437Y-90972245D02*
X264957951Y-91011664D01*
X264957951Y-91011664D02*
X265034130Y-91012993D01*
X265034130Y-91012993D02*
X265110973Y-90976234D01*
X265110973Y-90976234D02*
X265149728Y-90938809D01*
X265149728Y-90938809D02*
X265189147Y-90863295D01*
X265189147Y-90863295D02*
X265229896Y-90711602D01*
X265229896Y-90711602D02*
X265233220Y-90521155D01*
X265233220Y-90521155D02*
X265197790Y-90368132D01*
X265197790Y-90368132D02*
X265161030Y-90291289D01*
X265161030Y-90291289D02*
X265123606Y-90252534D01*
X265123606Y-90252534D02*
X265048092Y-90213115D01*
X264286303Y-90199818D02*
X264210124Y-90198489D01*
X264210124Y-90198489D02*
X264133280Y-90235248D01*
X264133280Y-90235248D02*
X264094526Y-90272673D01*
X264094526Y-90272673D02*
X264055107Y-90348187D01*
X264055107Y-90348187D02*
X264014358Y-90499880D01*
X264014358Y-90499880D02*
X264011033Y-90690327D01*
X264011033Y-90690327D02*
X264046463Y-90843350D01*
X264046463Y-90843350D02*
X264083223Y-90920193D01*
X264083223Y-90920193D02*
X264120648Y-90958948D01*
X264120648Y-90958948D02*
X264196162Y-90998367D01*
X264196162Y-90998367D02*
X264272341Y-90999696D01*
X264272341Y-90999696D02*
X264349184Y-90962937D01*
X264349184Y-90962937D02*
X264387939Y-90925512D01*
X264387939Y-90925512D02*
X264427358Y-90849998D01*
X264427358Y-90849998D02*
X264468107Y-90698305D01*
X264468107Y-90698305D02*
X264471431Y-90507858D01*
X264471431Y-90507858D02*
X264436001Y-90354835D01*
X264436001Y-90354835D02*
X264399241Y-90277992D01*
X264399241Y-90277992D02*
X264361817Y-90239237D01*
X264361817Y-90239237D02*
X264286303Y-90199818D01*
X263713631Y-90266024D02*
X263676206Y-90227270D01*
X263676206Y-90227270D02*
X263600692Y-90187851D01*
X263600692Y-90187851D02*
X263410245Y-90184527D01*
X263410245Y-90184527D02*
X263333402Y-90221286D01*
X263333402Y-90221286D02*
X263294647Y-90258711D01*
X263294647Y-90258711D02*
X263255228Y-90334225D01*
X263255228Y-90334225D02*
X263253898Y-90410404D01*
X263253898Y-90410404D02*
X263289993Y-90525337D01*
X263289993Y-90525337D02*
X263739088Y-90990388D01*
X263739088Y-90990388D02*
X263243926Y-90981745D01*
X264723175Y-93547953D02*
X265180248Y-93555931D01*
X264951711Y-93551942D02*
X264965673Y-92752063D01*
X264965673Y-92752063D02*
X265039857Y-92867661D01*
X265039857Y-92867661D02*
X265114707Y-92945170D01*
X265114707Y-92945170D02*
X265190221Y-92984589D01*
X263961386Y-93534655D02*
X264418459Y-93542634D01*
X264189922Y-93538645D02*
X264203884Y-92738766D01*
X264203884Y-92738766D02*
X264278068Y-92854364D01*
X264278068Y-92854364D02*
X264352918Y-92931873D01*
X264352918Y-92931873D02*
X264428432Y-92971292D01*
X263251648Y-92722145D02*
X263632542Y-92728794D01*
X263632542Y-92728794D02*
X263663983Y-93110353D01*
X263663983Y-93110353D02*
X263626559Y-93071599D01*
X263626559Y-93071599D02*
X263551045Y-93032179D01*
X263551045Y-93032179D02*
X263360597Y-93028855D01*
X263360597Y-93028855D02*
X263283754Y-93065615D01*
X263283754Y-93065615D02*
X263244999Y-93103039D01*
X263244999Y-93103039D02*
X263205580Y-93178553D01*
X263205580Y-93178553D02*
X263202256Y-93369001D01*
X263202256Y-93369001D02*
X263239016Y-93445844D01*
X263239016Y-93445844D02*
X263276440Y-93484599D01*
X263276440Y-93484599D02*
X263351954Y-93524018D01*
X263351954Y-93524018D02*
X263542402Y-93527342D01*
X263542402Y-93527342D02*
X263619245Y-93490582D01*
X263619245Y-93490582D02*
X263658000Y-93453158D01*
X264678846Y-96087567D02*
X265135919Y-96095545D01*
X264907382Y-96091556D02*
X264921344Y-95291677D01*
X264921344Y-95291677D02*
X264995528Y-95407275D01*
X264995528Y-95407275D02*
X265070378Y-95484784D01*
X265070378Y-95484784D02*
X265145892Y-95524203D01*
X263917057Y-96074269D02*
X264374130Y-96082248D01*
X264145593Y-96078259D02*
X264159555Y-95278380D01*
X264159555Y-95278380D02*
X264233739Y-95393978D01*
X264233739Y-95393978D02*
X264308589Y-95471487D01*
X264308589Y-95471487D02*
X264384103Y-95510906D01*
X263664392Y-95269737D02*
X263169230Y-95261094D01*
X263169230Y-95261094D02*
X263430537Y-95570464D01*
X263430537Y-95570464D02*
X263316268Y-95568469D01*
X263316268Y-95568469D02*
X263239425Y-95605229D01*
X263239425Y-95605229D02*
X263200670Y-95642653D01*
X263200670Y-95642653D02*
X263161251Y-95718167D01*
X263161251Y-95718167D02*
X263157927Y-95908615D01*
X263157927Y-95908615D02*
X263194687Y-95985458D01*
X263194687Y-95985458D02*
X263232111Y-96024213D01*
X263232111Y-96024213D02*
X263307625Y-96063632D01*
X263307625Y-96063632D02*
X263536162Y-96067621D01*
X263536162Y-96067621D02*
X263613006Y-96030861D01*
X263613006Y-96030861D02*
X263651760Y-95993437D01*
X264634516Y-98627180D02*
X265091589Y-98635158D01*
X264863052Y-98631169D02*
X264877014Y-97831290D01*
X264877014Y-97831290D02*
X264951198Y-97946888D01*
X264951198Y-97946888D02*
X265026048Y-98024397D01*
X265026048Y-98024397D02*
X265101562Y-98063816D01*
X263872727Y-98613882D02*
X264329800Y-98621861D01*
X264101263Y-98617872D02*
X264115225Y-97817993D01*
X264115225Y-97817993D02*
X264189409Y-97933591D01*
X264189409Y-97933591D02*
X264264259Y-98011100D01*
X264264259Y-98011100D02*
X264339773Y-98050519D01*
X263110938Y-98600585D02*
X263568011Y-98608564D01*
X263339474Y-98604574D02*
X263353436Y-97804696D01*
X263353436Y-97804696D02*
X263427620Y-97920294D01*
X263427620Y-97920294D02*
X263502470Y-97997803D01*
X263502470Y-97997803D02*
X263577984Y-98037222D01*
X264870775Y-100371568D02*
X264794596Y-100370239D01*
X264794596Y-100370239D02*
X264717752Y-100406998D01*
X264717752Y-100406998D02*
X264678998Y-100444423D01*
X264678998Y-100444423D02*
X264639578Y-100519937D01*
X264639578Y-100519937D02*
X264598830Y-100671630D01*
X264598830Y-100671630D02*
X264595505Y-100862077D01*
X264595505Y-100862077D02*
X264630935Y-101015100D01*
X264630935Y-101015100D02*
X264667695Y-101091943D01*
X264667695Y-101091943D02*
X264705120Y-101130698D01*
X264705120Y-101130698D02*
X264780634Y-101170117D01*
X264780634Y-101170117D02*
X264856813Y-101171446D01*
X264856813Y-101171446D02*
X264933656Y-101134687D01*
X264933656Y-101134687D02*
X264972411Y-101097262D01*
X264972411Y-101097262D02*
X265011830Y-101021748D01*
X265011830Y-101021748D02*
X265052579Y-100870055D01*
X265052579Y-100870055D02*
X265055903Y-100679608D01*
X265055903Y-100679608D02*
X265020473Y-100526585D01*
X265020473Y-100526585D02*
X264983713Y-100449742D01*
X264983713Y-100449742D02*
X264946289Y-100410987D01*
X264946289Y-100410987D02*
X264870775Y-100371568D01*
X263828398Y-101153495D02*
X264285471Y-101161474D01*
X264056934Y-101157485D02*
X264070896Y-100357606D01*
X264070896Y-100357606D02*
X264145080Y-100473204D01*
X264145080Y-100473204D02*
X264219930Y-100550713D01*
X264219930Y-100550713D02*
X264295444Y-100590132D01*
X263347197Y-100344974D02*
X263271018Y-100343644D01*
X263271018Y-100343644D02*
X263194174Y-100380404D01*
X263194174Y-100380404D02*
X263155420Y-100417829D01*
X263155420Y-100417829D02*
X263116001Y-100493343D01*
X263116001Y-100493343D02*
X263075252Y-100645036D01*
X263075252Y-100645036D02*
X263071927Y-100835483D01*
X263071927Y-100835483D02*
X263107357Y-100988505D01*
X263107357Y-100988505D02*
X263144117Y-101065349D01*
X263144117Y-101065349D02*
X263181542Y-101104103D01*
X263181542Y-101104103D02*
X263257056Y-101143523D01*
X263257056Y-101143523D02*
X263333235Y-101144852D01*
X263333235Y-101144852D02*
X263410078Y-101108093D01*
X263410078Y-101108093D02*
X263448833Y-101070668D01*
X263448833Y-101070668D02*
X263488252Y-100995154D01*
X263488252Y-100995154D02*
X263529001Y-100843461D01*
X263529001Y-100843461D02*
X263532325Y-100653014D01*
X263532325Y-100653014D02*
X263496895Y-100499991D01*
X263496895Y-100499991D02*
X263460135Y-100423148D01*
X263460135Y-100423148D02*
X263422711Y-100384393D01*
X263422711Y-100384393D02*
X263347197Y-100344974D01*
X276386761Y-75168711D02*
X276310582Y-75167382D01*
X276310582Y-75167382D02*
X276233738Y-75204141D01*
X276233738Y-75204141D02*
X276194984Y-75241566D01*
X276194984Y-75241566D02*
X276155564Y-75317080D01*
X276155564Y-75317080D02*
X276114816Y-75468773D01*
X276114816Y-75468773D02*
X276111491Y-75659220D01*
X276111491Y-75659220D02*
X276146921Y-75812243D01*
X276146921Y-75812243D02*
X276183681Y-75889086D01*
X276183681Y-75889086D02*
X276221106Y-75927841D01*
X276221106Y-75927841D02*
X276296620Y-75967260D01*
X276296620Y-75967260D02*
X276372799Y-75968589D01*
X276372799Y-75968589D02*
X276449642Y-75931830D01*
X276449642Y-75931830D02*
X276488397Y-75894405D01*
X276488397Y-75894405D02*
X276527816Y-75818891D01*
X276527816Y-75818891D02*
X276568565Y-75667198D01*
X276568565Y-75667198D02*
X276571889Y-75476751D01*
X276571889Y-75476751D02*
X276536459Y-75323728D01*
X276536459Y-75323728D02*
X276499699Y-75246885D01*
X276499699Y-75246885D02*
X276462275Y-75208130D01*
X276462275Y-75208130D02*
X276386761Y-75168711D01*
X275624972Y-75155414D02*
X275548793Y-75154085D01*
X275548793Y-75154085D02*
X275471949Y-75190844D01*
X275471949Y-75190844D02*
X275433195Y-75228269D01*
X275433195Y-75228269D02*
X275393776Y-75303783D01*
X275393776Y-75303783D02*
X275353027Y-75455476D01*
X275353027Y-75455476D02*
X275349702Y-75645923D01*
X275349702Y-75645923D02*
X275385132Y-75798946D01*
X275385132Y-75798946D02*
X275421892Y-75875789D01*
X275421892Y-75875789D02*
X275459317Y-75914544D01*
X275459317Y-75914544D02*
X275534831Y-75953963D01*
X275534831Y-75953963D02*
X275611010Y-75955292D01*
X275611010Y-75955292D02*
X275687853Y-75918533D01*
X275687853Y-75918533D02*
X275726608Y-75881108D01*
X275726608Y-75881108D02*
X275766027Y-75805594D01*
X275766027Y-75805594D02*
X275806776Y-75653901D01*
X275806776Y-75653901D02*
X275810100Y-75463454D01*
X275810100Y-75463454D02*
X275774670Y-75310431D01*
X275774670Y-75310431D02*
X275737910Y-75233588D01*
X275737910Y-75233588D02*
X275700486Y-75194833D01*
X275700486Y-75194833D02*
X275624972Y-75155414D01*
X274672735Y-75138793D02*
X274825093Y-75141452D01*
X274825093Y-75141452D02*
X274900607Y-75180871D01*
X274900607Y-75180871D02*
X274938032Y-75219626D01*
X274938032Y-75219626D02*
X275012216Y-75335224D01*
X275012216Y-75335224D02*
X275047646Y-75488246D01*
X275047646Y-75488246D02*
X275042327Y-75792962D01*
X275042327Y-75792962D02*
X275002908Y-75868476D01*
X275002908Y-75868476D02*
X274964154Y-75905900D01*
X274964154Y-75905900D02*
X274887310Y-75942660D01*
X274887310Y-75942660D02*
X274734952Y-75940001D01*
X274734952Y-75940001D02*
X274659438Y-75900582D01*
X274659438Y-75900582D02*
X274622014Y-75861827D01*
X274622014Y-75861827D02*
X274585254Y-75784984D01*
X274585254Y-75784984D02*
X274588578Y-75594536D01*
X274588578Y-75594536D02*
X274627997Y-75519022D01*
X274627997Y-75519022D02*
X274666752Y-75481598D01*
X274666752Y-75481598D02*
X274743595Y-75444838D01*
X274743595Y-75444838D02*
X274895953Y-75447498D01*
X274895953Y-75447498D02*
X274971467Y-75486917D01*
X274971467Y-75486917D02*
X275008892Y-75525671D01*
X275008892Y-75525671D02*
X275045652Y-75602515D01*
X276343653Y-77638335D02*
X276267474Y-77637006D01*
X276267474Y-77637006D02*
X276190630Y-77673765D01*
X276190630Y-77673765D02*
X276151876Y-77711190D01*
X276151876Y-77711190D02*
X276112456Y-77786704D01*
X276112456Y-77786704D02*
X276071708Y-77938397D01*
X276071708Y-77938397D02*
X276068383Y-78128844D01*
X276068383Y-78128844D02*
X276103813Y-78281867D01*
X276103813Y-78281867D02*
X276140573Y-78358710D01*
X276140573Y-78358710D02*
X276177998Y-78397465D01*
X276177998Y-78397465D02*
X276253512Y-78436884D01*
X276253512Y-78436884D02*
X276329691Y-78438213D01*
X276329691Y-78438213D02*
X276406534Y-78401454D01*
X276406534Y-78401454D02*
X276445289Y-78364029D01*
X276445289Y-78364029D02*
X276484708Y-78288515D01*
X276484708Y-78288515D02*
X276525457Y-78136822D01*
X276525457Y-78136822D02*
X276528781Y-77946375D01*
X276528781Y-77946375D02*
X276493351Y-77793352D01*
X276493351Y-77793352D02*
X276456591Y-77716509D01*
X276456591Y-77716509D02*
X276419167Y-77677754D01*
X276419167Y-77677754D02*
X276343653Y-77638335D01*
X275581864Y-77625038D02*
X275505685Y-77623709D01*
X275505685Y-77623709D02*
X275428841Y-77660468D01*
X275428841Y-77660468D02*
X275390087Y-77697893D01*
X275390087Y-77697893D02*
X275350668Y-77773407D01*
X275350668Y-77773407D02*
X275309919Y-77925100D01*
X275309919Y-77925100D02*
X275306594Y-78115547D01*
X275306594Y-78115547D02*
X275342024Y-78268570D01*
X275342024Y-78268570D02*
X275378784Y-78345413D01*
X275378784Y-78345413D02*
X275416209Y-78384168D01*
X275416209Y-78384168D02*
X275491723Y-78423587D01*
X275491723Y-78423587D02*
X275567902Y-78424916D01*
X275567902Y-78424916D02*
X275644745Y-78388157D01*
X275644745Y-78388157D02*
X275683500Y-78350732D01*
X275683500Y-78350732D02*
X275722919Y-78275218D01*
X275722919Y-78275218D02*
X275763668Y-78123525D01*
X275763668Y-78123525D02*
X275766992Y-77933078D01*
X275766992Y-77933078D02*
X275731562Y-77780055D01*
X275731562Y-77780055D02*
X275694802Y-77703212D01*
X275694802Y-77703212D02*
X275657378Y-77664457D01*
X275657378Y-77664457D02*
X275581864Y-77625038D01*
X274852180Y-77955211D02*
X274929024Y-77918451D01*
X274929024Y-77918451D02*
X274967778Y-77881027D01*
X274967778Y-77881027D02*
X275007198Y-77805513D01*
X275007198Y-77805513D02*
X275007862Y-77767423D01*
X275007862Y-77767423D02*
X274971103Y-77690579D01*
X274971103Y-77690579D02*
X274933678Y-77651825D01*
X274933678Y-77651825D02*
X274858164Y-77612406D01*
X274858164Y-77612406D02*
X274705806Y-77609747D01*
X274705806Y-77609747D02*
X274628963Y-77646506D01*
X274628963Y-77646506D02*
X274590208Y-77683931D01*
X274590208Y-77683931D02*
X274550789Y-77759445D01*
X274550789Y-77759445D02*
X274550124Y-77797534D01*
X274550124Y-77797534D02*
X274586884Y-77874378D01*
X274586884Y-77874378D02*
X274624309Y-77913132D01*
X274624309Y-77913132D02*
X274699823Y-77952552D01*
X274699823Y-77952552D02*
X274852180Y-77955211D01*
X274852180Y-77955211D02*
X274927694Y-77994630D01*
X274927694Y-77994630D02*
X274965119Y-78033384D01*
X274965119Y-78033384D02*
X275001879Y-78110228D01*
X275001879Y-78110228D02*
X274999219Y-78262586D01*
X274999219Y-78262586D02*
X274959800Y-78338100D01*
X274959800Y-78338100D02*
X274921046Y-78375524D01*
X274921046Y-78375524D02*
X274844202Y-78412284D01*
X274844202Y-78412284D02*
X274691844Y-78409625D01*
X274691844Y-78409625D02*
X274616330Y-78370206D01*
X274616330Y-78370206D02*
X274578906Y-78331451D01*
X274578906Y-78331451D02*
X274542146Y-78254608D01*
X274542146Y-78254608D02*
X274544805Y-78102250D01*
X274544805Y-78102250D02*
X274584225Y-78026736D01*
X274584225Y-78026736D02*
X274622979Y-77989311D01*
X274622979Y-77989311D02*
X274699823Y-77952552D01*
X276030811Y-80281373D02*
X276107655Y-80244614D01*
X276107655Y-80244614D02*
X276221923Y-80246608D01*
X276221923Y-80246608D02*
X276335526Y-80286692D01*
X276335526Y-80286692D02*
X276410376Y-80364201D01*
X276410376Y-80364201D02*
X276447135Y-80441045D01*
X276447135Y-80441045D02*
X276482565Y-80594067D01*
X276482565Y-80594067D02*
X276480571Y-80708336D01*
X276480571Y-80708336D02*
X276439822Y-80860028D01*
X276439822Y-80860028D02*
X276400403Y-80935542D01*
X276400403Y-80935542D02*
X276322894Y-81010392D01*
X276322894Y-81010392D02*
X276207961Y-81046486D01*
X276207961Y-81046486D02*
X276131782Y-81045157D01*
X276131782Y-81045157D02*
X276018179Y-81005073D01*
X276018179Y-81005073D02*
X275980754Y-80966318D01*
X275980754Y-80966318D02*
X275985408Y-80699692D01*
X275985408Y-80699692D02*
X276137766Y-80702352D01*
X275636620Y-81036514D02*
X275650581Y-80236636D01*
X275650581Y-80236636D02*
X275179546Y-81028535D01*
X275179546Y-81028535D02*
X275193508Y-80228657D01*
X274798652Y-81021887D02*
X274812614Y-80222009D01*
X274812614Y-80222009D02*
X274622167Y-80218684D01*
X274622167Y-80218684D02*
X274507234Y-80254779D01*
X274507234Y-80254779D02*
X274429725Y-80329629D01*
X274429725Y-80329629D02*
X274390306Y-80405143D01*
X274390306Y-80405143D02*
X274349557Y-80556835D01*
X274349557Y-80556835D02*
X274347563Y-80671104D01*
X274347563Y-80671104D02*
X274382993Y-80824126D01*
X274382993Y-80824126D02*
X274419752Y-80900970D01*
X274419752Y-80900970D02*
X274494602Y-80978479D01*
X274494602Y-80978479D02*
X274608205Y-81018563D01*
X274608205Y-81018563D02*
X274798652Y-81021887D01*
X275986482Y-82820986D02*
X276063326Y-82784227D01*
X276063326Y-82784227D02*
X276177594Y-82786221D01*
X276177594Y-82786221D02*
X276291197Y-82826305D01*
X276291197Y-82826305D02*
X276366047Y-82903814D01*
X276366047Y-82903814D02*
X276402806Y-82980658D01*
X276402806Y-82980658D02*
X276438236Y-83133680D01*
X276438236Y-83133680D02*
X276436242Y-83247949D01*
X276436242Y-83247949D02*
X276395493Y-83399641D01*
X276395493Y-83399641D02*
X276356074Y-83475155D01*
X276356074Y-83475155D02*
X276278565Y-83550005D01*
X276278565Y-83550005D02*
X276163632Y-83586099D01*
X276163632Y-83586099D02*
X276087453Y-83584770D01*
X276087453Y-83584770D02*
X275973850Y-83544686D01*
X275973850Y-83544686D02*
X275936425Y-83505931D01*
X275936425Y-83505931D02*
X275941079Y-83239305D01*
X275941079Y-83239305D02*
X276093437Y-83241965D01*
X275592291Y-83576127D02*
X275606252Y-82776249D01*
X275606252Y-82776249D02*
X275135217Y-83568148D01*
X275135217Y-83568148D02*
X275149179Y-82768270D01*
X274754323Y-83561500D02*
X274768285Y-82761622D01*
X274768285Y-82761622D02*
X274577838Y-82758297D01*
X274577838Y-82758297D02*
X274462905Y-82794392D01*
X274462905Y-82794392D02*
X274385396Y-82869242D01*
X274385396Y-82869242D02*
X274345977Y-82944756D01*
X274345977Y-82944756D02*
X274305228Y-83096448D01*
X274305228Y-83096448D02*
X274303234Y-83210717D01*
X274303234Y-83210717D02*
X274338664Y-83363739D01*
X274338664Y-83363739D02*
X274375423Y-83440583D01*
X274375423Y-83440583D02*
X274450273Y-83518092D01*
X274450273Y-83518092D02*
X274563876Y-83558176D01*
X274563876Y-83558176D02*
X274754323Y-83561500D01*
X276209270Y-85337162D02*
X276133091Y-85335833D01*
X276133091Y-85335833D02*
X276056247Y-85372592D01*
X276056247Y-85372592D02*
X276017493Y-85410017D01*
X276017493Y-85410017D02*
X275978073Y-85485531D01*
X275978073Y-85485531D02*
X275937325Y-85637224D01*
X275937325Y-85637224D02*
X275934000Y-85827671D01*
X275934000Y-85827671D02*
X275969430Y-85980694D01*
X275969430Y-85980694D02*
X276006190Y-86057537D01*
X276006190Y-86057537D02*
X276043615Y-86096292D01*
X276043615Y-86096292D02*
X276119129Y-86135711D01*
X276119129Y-86135711D02*
X276195308Y-86137040D01*
X276195308Y-86137040D02*
X276272151Y-86100281D01*
X276272151Y-86100281D02*
X276310906Y-86062856D01*
X276310906Y-86062856D02*
X276350325Y-85987342D01*
X276350325Y-85987342D02*
X276391074Y-85835649D01*
X276391074Y-85835649D02*
X276394398Y-85645202D01*
X276394398Y-85645202D02*
X276358968Y-85492179D01*
X276358968Y-85492179D02*
X276322208Y-85415336D01*
X276322208Y-85415336D02*
X276284784Y-85376581D01*
X276284784Y-85376581D02*
X276209270Y-85337162D01*
X275166893Y-86119089D02*
X275623966Y-86127068D01*
X275395429Y-86123079D02*
X275409391Y-85323200D01*
X275409391Y-85323200D02*
X275483575Y-85438798D01*
X275483575Y-85438798D02*
X275558425Y-85516307D01*
X275558425Y-85516307D02*
X275633939Y-85555726D01*
X274914228Y-85314557D02*
X274380976Y-85305249D01*
X274380976Y-85305249D02*
X274709819Y-86111111D01*
X276163894Y-87936766D02*
X276087715Y-87935437D01*
X276087715Y-87935437D02*
X276010871Y-87972196D01*
X276010871Y-87972196D02*
X275972117Y-88009621D01*
X275972117Y-88009621D02*
X275932697Y-88085135D01*
X275932697Y-88085135D02*
X275891949Y-88236828D01*
X275891949Y-88236828D02*
X275888624Y-88427275D01*
X275888624Y-88427275D02*
X275924054Y-88580298D01*
X275924054Y-88580298D02*
X275960814Y-88657141D01*
X275960814Y-88657141D02*
X275998239Y-88695896D01*
X275998239Y-88695896D02*
X276073753Y-88735315D01*
X276073753Y-88735315D02*
X276149932Y-88736644D01*
X276149932Y-88736644D02*
X276226775Y-88699885D01*
X276226775Y-88699885D02*
X276265530Y-88662460D01*
X276265530Y-88662460D02*
X276304949Y-88586946D01*
X276304949Y-88586946D02*
X276345698Y-88435253D01*
X276345698Y-88435253D02*
X276349022Y-88244806D01*
X276349022Y-88244806D02*
X276313592Y-88091783D01*
X276313592Y-88091783D02*
X276276832Y-88014940D01*
X276276832Y-88014940D02*
X276239408Y-87976185D01*
X276239408Y-87976185D02*
X276163894Y-87936766D01*
X275591222Y-88002972D02*
X275553797Y-87964218D01*
X275553797Y-87964218D02*
X275478283Y-87924799D01*
X275478283Y-87924799D02*
X275287836Y-87921475D01*
X275287836Y-87921475D02*
X275210993Y-87958234D01*
X275210993Y-87958234D02*
X275172238Y-87995659D01*
X275172238Y-87995659D02*
X275132819Y-88071173D01*
X275132819Y-88071173D02*
X275131489Y-88147352D01*
X275131489Y-88147352D02*
X275167584Y-88262285D01*
X275167584Y-88262285D02*
X275616679Y-88727337D01*
X275616679Y-88727337D02*
X275121517Y-88718693D01*
X274640316Y-87910172D02*
X274564137Y-87908842D01*
X274564137Y-87908842D02*
X274487293Y-87945602D01*
X274487293Y-87945602D02*
X274448539Y-87983027D01*
X274448539Y-87983027D02*
X274409120Y-88058541D01*
X274409120Y-88058541D02*
X274368371Y-88210234D01*
X274368371Y-88210234D02*
X274365046Y-88400681D01*
X274365046Y-88400681D02*
X274400476Y-88553703D01*
X274400476Y-88553703D02*
X274437236Y-88630547D01*
X274437236Y-88630547D02*
X274474661Y-88669301D01*
X274474661Y-88669301D02*
X274550175Y-88708721D01*
X274550175Y-88708721D02*
X274626354Y-88710050D01*
X274626354Y-88710050D02*
X274703197Y-88673291D01*
X274703197Y-88673291D02*
X274741952Y-88635866D01*
X274741952Y-88635866D02*
X274781371Y-88560352D01*
X274781371Y-88560352D02*
X274822120Y-88408659D01*
X274822120Y-88408659D02*
X274825444Y-88218212D01*
X274825444Y-88218212D02*
X274790014Y-88065189D01*
X274790014Y-88065189D02*
X274753254Y-87988346D01*
X274753254Y-87988346D02*
X274715830Y-87949591D01*
X274715830Y-87949591D02*
X274640316Y-87910172D01*
X276120263Y-90436385D02*
X276044084Y-90435056D01*
X276044084Y-90435056D02*
X275967240Y-90471815D01*
X275967240Y-90471815D02*
X275928486Y-90509240D01*
X275928486Y-90509240D02*
X275889066Y-90584754D01*
X275889066Y-90584754D02*
X275848318Y-90736447D01*
X275848318Y-90736447D02*
X275844993Y-90926894D01*
X275844993Y-90926894D02*
X275880423Y-91079917D01*
X275880423Y-91079917D02*
X275917183Y-91156760D01*
X275917183Y-91156760D02*
X275954608Y-91195515D01*
X275954608Y-91195515D02*
X276030122Y-91234934D01*
X276030122Y-91234934D02*
X276106301Y-91236263D01*
X276106301Y-91236263D02*
X276183144Y-91199504D01*
X276183144Y-91199504D02*
X276221899Y-91162079D01*
X276221899Y-91162079D02*
X276261318Y-91086565D01*
X276261318Y-91086565D02*
X276302067Y-90934872D01*
X276302067Y-90934872D02*
X276305391Y-90744425D01*
X276305391Y-90744425D02*
X276269961Y-90591402D01*
X276269961Y-90591402D02*
X276233201Y-90514559D01*
X276233201Y-90514559D02*
X276195777Y-90475804D01*
X276195777Y-90475804D02*
X276120263Y-90436385D01*
X275547591Y-90502591D02*
X275510166Y-90463837D01*
X275510166Y-90463837D02*
X275434652Y-90424418D01*
X275434652Y-90424418D02*
X275244205Y-90421094D01*
X275244205Y-90421094D02*
X275167362Y-90457853D01*
X275167362Y-90457853D02*
X275128607Y-90495278D01*
X275128607Y-90495278D02*
X275089188Y-90570792D01*
X275089188Y-90570792D02*
X275087858Y-90646971D01*
X275087858Y-90646971D02*
X275123953Y-90761904D01*
X275123953Y-90761904D02*
X275573048Y-91226956D01*
X275573048Y-91226956D02*
X275077886Y-91218312D01*
X274785802Y-90489294D02*
X274748377Y-90450540D01*
X274748377Y-90450540D02*
X274672863Y-90411121D01*
X274672863Y-90411121D02*
X274482416Y-90407797D01*
X274482416Y-90407797D02*
X274405573Y-90444556D01*
X274405573Y-90444556D02*
X274366818Y-90481981D01*
X274366818Y-90481981D02*
X274327399Y-90557495D01*
X274327399Y-90557495D02*
X274326069Y-90633674D01*
X274326069Y-90633674D02*
X274362164Y-90748607D01*
X274362164Y-90748607D02*
X274811259Y-91213658D01*
X274811259Y-91213658D02*
X274316097Y-91205015D01*
X276076457Y-92946003D02*
X276000278Y-92944674D01*
X276000278Y-92944674D02*
X275923434Y-92981433D01*
X275923434Y-92981433D02*
X275884680Y-93018858D01*
X275884680Y-93018858D02*
X275845260Y-93094372D01*
X275845260Y-93094372D02*
X275804512Y-93246065D01*
X275804512Y-93246065D02*
X275801187Y-93436512D01*
X275801187Y-93436512D02*
X275836617Y-93589535D01*
X275836617Y-93589535D02*
X275873377Y-93666378D01*
X275873377Y-93666378D02*
X275910802Y-93705133D01*
X275910802Y-93705133D02*
X275986316Y-93744552D01*
X275986316Y-93744552D02*
X276062495Y-93745881D01*
X276062495Y-93745881D02*
X276139338Y-93709122D01*
X276139338Y-93709122D02*
X276178093Y-93671697D01*
X276178093Y-93671697D02*
X276217512Y-93596183D01*
X276217512Y-93596183D02*
X276258261Y-93444490D01*
X276258261Y-93444490D02*
X276261585Y-93254043D01*
X276261585Y-93254043D02*
X276226155Y-93101020D01*
X276226155Y-93101020D02*
X276189395Y-93024177D01*
X276189395Y-93024177D02*
X276151971Y-92985422D01*
X276151971Y-92985422D02*
X276076457Y-92946003D01*
X275503785Y-93012209D02*
X275466360Y-92973455D01*
X275466360Y-92973455D02*
X275390846Y-92934036D01*
X275390846Y-92934036D02*
X275200399Y-92930712D01*
X275200399Y-92930712D02*
X275123556Y-92967471D01*
X275123556Y-92967471D02*
X275084801Y-93004896D01*
X275084801Y-93004896D02*
X275045382Y-93080410D01*
X275045382Y-93080410D02*
X275044052Y-93156589D01*
X275044052Y-93156589D02*
X275080147Y-93271522D01*
X275080147Y-93271522D02*
X275529242Y-93736574D01*
X275529242Y-93736574D02*
X275034080Y-93727930D01*
X274357777Y-93182711D02*
X274348469Y-93715963D01*
X274553543Y-92881320D02*
X274734018Y-93455986D01*
X274734018Y-93455986D02*
X274238855Y-93447342D01*
X275751540Y-96280841D02*
X276208613Y-96288819D01*
X275980076Y-96284830D02*
X275994038Y-95484951D01*
X275994038Y-95484951D02*
X276068222Y-95600549D01*
X276068222Y-95600549D02*
X276143072Y-95678058D01*
X276143072Y-95678058D02*
X276218586Y-95717477D01*
X275270339Y-95472319D02*
X275194160Y-95470990D01*
X275194160Y-95470990D02*
X275117316Y-95507749D01*
X275117316Y-95507749D02*
X275078562Y-95545174D01*
X275078562Y-95545174D02*
X275039143Y-95620688D01*
X275039143Y-95620688D02*
X274998394Y-95772381D01*
X274998394Y-95772381D02*
X274995069Y-95962828D01*
X274995069Y-95962828D02*
X275030499Y-96115851D01*
X275030499Y-96115851D02*
X275067259Y-96192694D01*
X275067259Y-96192694D02*
X275104684Y-96231449D01*
X275104684Y-96231449D02*
X275180198Y-96270868D01*
X275180198Y-96270868D02*
X275256377Y-96272197D01*
X275256377Y-96272197D02*
X275333220Y-96235438D01*
X275333220Y-96235438D02*
X275371975Y-96198013D01*
X275371975Y-96198013D02*
X275411394Y-96122499D01*
X275411394Y-96122499D02*
X275452143Y-95970806D01*
X275452143Y-95970806D02*
X275455467Y-95780359D01*
X275455467Y-95780359D02*
X275420037Y-95627336D01*
X275420037Y-95627336D02*
X275383277Y-95550493D01*
X275383277Y-95550493D02*
X275345853Y-95511738D01*
X275345853Y-95511738D02*
X275270339Y-95472319D01*
X274508550Y-95459022D02*
X274432371Y-95457692D01*
X274432371Y-95457692D02*
X274355527Y-95494452D01*
X274355527Y-95494452D02*
X274316773Y-95531877D01*
X274316773Y-95531877D02*
X274277354Y-95607391D01*
X274277354Y-95607391D02*
X274236605Y-95759084D01*
X274236605Y-95759084D02*
X274233280Y-95949531D01*
X274233280Y-95949531D02*
X274268710Y-96102553D01*
X274268710Y-96102553D02*
X274305470Y-96179397D01*
X274305470Y-96179397D02*
X274342895Y-96218151D01*
X274342895Y-96218151D02*
X274418409Y-96257571D01*
X274418409Y-96257571D02*
X274494588Y-96258900D01*
X274494588Y-96258900D02*
X274571431Y-96222141D01*
X274571431Y-96222141D02*
X274610186Y-96184716D01*
X274610186Y-96184716D02*
X274649605Y-96109202D01*
X274649605Y-96109202D02*
X274690354Y-95957509D01*
X274690354Y-95957509D02*
X274693678Y-95767062D01*
X274693678Y-95767062D02*
X274658248Y-95614039D01*
X274658248Y-95614039D02*
X274621488Y-95537196D01*
X274621488Y-95537196D02*
X274584064Y-95498441D01*
X274584064Y-95498441D02*
X274508550Y-95459022D01*
X275662882Y-101360067D02*
X276119955Y-101368045D01*
X275891418Y-101364056D02*
X275905380Y-100564177D01*
X275905380Y-100564177D02*
X275979564Y-100679775D01*
X275979564Y-100679775D02*
X276054414Y-100757284D01*
X276054414Y-100757284D02*
X276129928Y-100796703D01*
X275181681Y-100551545D02*
X275105502Y-100550216D01*
X275105502Y-100550216D02*
X275028658Y-100586975D01*
X275028658Y-100586975D02*
X274989904Y-100624400D01*
X274989904Y-100624400D02*
X274950485Y-100699914D01*
X274950485Y-100699914D02*
X274909736Y-100851607D01*
X274909736Y-100851607D02*
X274906411Y-101042054D01*
X274906411Y-101042054D02*
X274941841Y-101195077D01*
X274941841Y-101195077D02*
X274978601Y-101271920D01*
X274978601Y-101271920D02*
X275016026Y-101310675D01*
X275016026Y-101310675D02*
X275091540Y-101350094D01*
X275091540Y-101350094D02*
X275167719Y-101351423D01*
X275167719Y-101351423D02*
X275244562Y-101314664D01*
X275244562Y-101314664D02*
X275283317Y-101277239D01*
X275283317Y-101277239D02*
X275322736Y-101201725D01*
X275322736Y-101201725D02*
X275363485Y-101050032D01*
X275363485Y-101050032D02*
X275366809Y-100859585D01*
X275366809Y-100859585D02*
X275331379Y-100706562D01*
X275331379Y-100706562D02*
X275294619Y-100629719D01*
X275294619Y-100629719D02*
X275257195Y-100590964D01*
X275257195Y-100590964D02*
X275181681Y-100551545D01*
X274224790Y-100801550D02*
X274215482Y-101334802D01*
X274420556Y-100500159D02*
X274601031Y-101074825D01*
X274601031Y-101074825D02*
X274105868Y-101066181D01*
X264790452Y-103906981D02*
X264826547Y-104021915D01*
X264826547Y-104021915D02*
X264823222Y-104212362D01*
X264823222Y-104212362D02*
X264783803Y-104287876D01*
X264783803Y-104287876D02*
X264745049Y-104325300D01*
X264745049Y-104325300D02*
X264668205Y-104362060D01*
X264668205Y-104362060D02*
X264592026Y-104360730D01*
X264592026Y-104360730D02*
X264516512Y-104321311D01*
X264516512Y-104321311D02*
X264479088Y-104282557D01*
X264479088Y-104282557D02*
X264442328Y-104205713D01*
X264442328Y-104205713D02*
X264406898Y-104052691D01*
X264406898Y-104052691D02*
X264370138Y-103975847D01*
X264370138Y-103975847D02*
X264332714Y-103937093D01*
X264332714Y-103937093D02*
X264257200Y-103897674D01*
X264257200Y-103897674D02*
X264181021Y-103896344D01*
X264181021Y-103896344D02*
X264104177Y-103933104D01*
X264104177Y-103933104D02*
X264065423Y-103970528D01*
X264065423Y-103970528D02*
X264026004Y-104046042D01*
X264026004Y-104046042D02*
X264022679Y-104236489D01*
X264022679Y-104236489D02*
X264058774Y-104351422D01*
X264814579Y-104707525D02*
X264014701Y-104693563D01*
X264014701Y-104693563D02*
X264011377Y-104884010D01*
X264011377Y-104884010D02*
X264047472Y-104998943D01*
X264047472Y-104998943D02*
X264122321Y-105076452D01*
X264122321Y-105076452D02*
X264197835Y-105115871D01*
X264197835Y-105115871D02*
X264349528Y-105156620D01*
X264349528Y-105156620D02*
X264463796Y-105158614D01*
X264463796Y-105158614D02*
X264616819Y-105123184D01*
X264616819Y-105123184D02*
X264693663Y-105086425D01*
X264693663Y-105086425D02*
X264771171Y-105011575D01*
X264771171Y-105011575D02*
X264811255Y-104897972D01*
X264811255Y-104897972D02*
X264814579Y-104707525D01*
X264572746Y-105465324D02*
X264566097Y-105846219D01*
X264802612Y-105393135D02*
X263998080Y-105645799D01*
X263998080Y-105645799D02*
X264793304Y-105926387D01*
X267329732Y-103970355D02*
X267365827Y-104085288D01*
X267365827Y-104085288D02*
X267362503Y-104275735D01*
X267362503Y-104275735D02*
X267323084Y-104351249D01*
X267323084Y-104351249D02*
X267284330Y-104388674D01*
X267284330Y-104388674D02*
X267207486Y-104425433D01*
X267207486Y-104425433D02*
X267131307Y-104424104D01*
X267131307Y-104424104D02*
X267055793Y-104384684D01*
X267055793Y-104384684D02*
X267018368Y-104345930D01*
X267018368Y-104345930D02*
X266981609Y-104269086D01*
X266981609Y-104269086D02*
X266946179Y-104116064D01*
X266946179Y-104116064D02*
X266909419Y-104039220D01*
X266909419Y-104039220D02*
X266871994Y-104000466D01*
X266871994Y-104000466D02*
X266796480Y-103961047D01*
X266796480Y-103961047D02*
X266720301Y-103959717D01*
X266720301Y-103959717D02*
X266643458Y-103996477D01*
X266643458Y-103996477D02*
X266604703Y-104033901D01*
X266604703Y-104033901D02*
X266565284Y-104109415D01*
X266565284Y-104109415D02*
X266561960Y-104299862D01*
X266561960Y-104299862D02*
X266598055Y-104414796D01*
X267269703Y-105226641D02*
X267308457Y-105189217D01*
X267308457Y-105189217D02*
X267348541Y-105075613D01*
X267348541Y-105075613D02*
X267349871Y-104999434D01*
X267349871Y-104999434D02*
X267313776Y-104884501D01*
X267313776Y-104884501D02*
X267238927Y-104806993D01*
X267238927Y-104806993D02*
X267163413Y-104767574D01*
X267163413Y-104767574D02*
X267011720Y-104726825D01*
X267011720Y-104726825D02*
X266897452Y-104724830D01*
X266897452Y-104724830D02*
X266744429Y-104760260D01*
X266744429Y-104760260D02*
X266667585Y-104797020D01*
X266667585Y-104797020D02*
X266590077Y-104871869D01*
X266590077Y-104871869D02*
X266549993Y-104985473D01*
X266549993Y-104985473D02*
X266548663Y-105061651D01*
X266548663Y-105061651D02*
X266584758Y-105176585D01*
X266584758Y-105176585D02*
X266622182Y-105215339D01*
X267333250Y-105951670D02*
X267339898Y-105570776D01*
X267339898Y-105570776D02*
X266540020Y-105556814D01*
X269109551Y-103887118D02*
X269904775Y-104167706D01*
X269904775Y-104167706D02*
X269100243Y-104420371D01*
X269811310Y-105156702D02*
X269850065Y-105119277D01*
X269850065Y-105119277D02*
X269890149Y-105005674D01*
X269890149Y-105005674D02*
X269891478Y-104929495D01*
X269891478Y-104929495D02*
X269855384Y-104814562D01*
X269855384Y-104814562D02*
X269780534Y-104737053D01*
X269780534Y-104737053D02*
X269705020Y-104697634D01*
X269705020Y-104697634D02*
X269553327Y-104656885D01*
X269553327Y-104656885D02*
X269439059Y-104654891D01*
X269439059Y-104654891D02*
X269286037Y-104690321D01*
X269286037Y-104690321D02*
X269209193Y-104727080D01*
X269209193Y-104727080D02*
X269131684Y-104801929D01*
X269131684Y-104801929D02*
X269091600Y-104915533D01*
X269091600Y-104915533D02*
X269090271Y-104991712D01*
X269090271Y-104991712D02*
X269126365Y-105106645D01*
X269126365Y-105106645D02*
X269163790Y-105145399D01*
X269797348Y-105956580D02*
X269836103Y-105919155D01*
X269836103Y-105919155D02*
X269876187Y-105805552D01*
X269876187Y-105805552D02*
X269877516Y-105729373D01*
X269877516Y-105729373D02*
X269841422Y-105614440D01*
X269841422Y-105614440D02*
X269766572Y-105536931D01*
X269766572Y-105536931D02*
X269691058Y-105497512D01*
X269691058Y-105497512D02*
X269539366Y-105456763D01*
X269539366Y-105456763D02*
X269425097Y-105454769D01*
X269425097Y-105454769D02*
X269272075Y-105490199D01*
X269272075Y-105490199D02*
X269195231Y-105526958D01*
X269195231Y-105526958D02*
X269117722Y-105601808D01*
X269117722Y-105601808D02*
X269077638Y-105715411D01*
X269077638Y-105715411D02*
X269076309Y-105791590D01*
X269076309Y-105791590D02*
X269112404Y-105906523D01*
X269112404Y-105906523D02*
X269149828Y-105945277D01*
X271679276Y-104389186D02*
X271642517Y-104312342D01*
X271642517Y-104312342D02*
X271644511Y-104198074D01*
X271644511Y-104198074D02*
X271684595Y-104084471D01*
X271684595Y-104084471D02*
X271762104Y-104009621D01*
X271762104Y-104009621D02*
X271838948Y-103972862D01*
X271838948Y-103972862D02*
X271991970Y-103937432D01*
X271991970Y-103937432D02*
X272106239Y-103939426D01*
X272106239Y-103939426D02*
X272257931Y-103980175D01*
X272257931Y-103980175D02*
X272333445Y-104019594D01*
X272333445Y-104019594D02*
X272408295Y-104097103D01*
X272408295Y-104097103D02*
X272444389Y-104212036D01*
X272444389Y-104212036D02*
X272443060Y-104288215D01*
X272443060Y-104288215D02*
X272402976Y-104401818D01*
X272402976Y-104401818D02*
X272364221Y-104439243D01*
X272364221Y-104439243D02*
X272097595Y-104434589D01*
X272097595Y-104434589D02*
X272100255Y-104282231D01*
X272434417Y-104783377D02*
X271634539Y-104769416D01*
X271634539Y-104769416D02*
X272426438Y-105240451D01*
X272426438Y-105240451D02*
X271626560Y-105226489D01*
X272419790Y-105621345D02*
X271619912Y-105607383D01*
X271619912Y-105607383D02*
X271616587Y-105797830D01*
X271616587Y-105797830D02*
X271652682Y-105912763D01*
X271652682Y-105912763D02*
X271727532Y-105990272D01*
X271727532Y-105990272D02*
X271803046Y-106029691D01*
X271803046Y-106029691D02*
X271954738Y-106070440D01*
X271954738Y-106070440D02*
X272069007Y-106072434D01*
X272069007Y-106072434D02*
X272222029Y-106037004D01*
X272222029Y-106037004D02*
X272298873Y-106000245D01*
X272298873Y-106000245D02*
X272376382Y-105925395D01*
X272376382Y-105925395D02*
X272416466Y-105811792D01*
X272416466Y-105811792D02*
X272419790Y-105621345D01*
X274896189Y-104921600D02*
X274934943Y-104884175D01*
X274934943Y-104884175D02*
X274975027Y-104770572D01*
X274975027Y-104770572D02*
X274976357Y-104694393D01*
X274976357Y-104694393D02*
X274940262Y-104579460D01*
X274940262Y-104579460D02*
X274865413Y-104501951D01*
X274865413Y-104501951D02*
X274789899Y-104462532D01*
X274789899Y-104462532D02*
X274638206Y-104421783D01*
X274638206Y-104421783D02*
X274523937Y-104419789D01*
X274523937Y-104419789D02*
X274370915Y-104455219D01*
X274370915Y-104455219D02*
X274294071Y-104491979D01*
X274294071Y-104491979D02*
X274216563Y-104566828D01*
X274216563Y-104566828D02*
X274176479Y-104680431D01*
X274176479Y-104680431D02*
X274175149Y-104756610D01*
X274175149Y-104756610D02*
X274211244Y-104871543D01*
X274211244Y-104871543D02*
X274248668Y-104910298D01*
X274928959Y-105226980D02*
X274965054Y-105341914D01*
X274965054Y-105341914D02*
X274961730Y-105532361D01*
X274961730Y-105532361D02*
X274922311Y-105607875D01*
X274922311Y-105607875D02*
X274883556Y-105645299D01*
X274883556Y-105645299D02*
X274806713Y-105682059D01*
X274806713Y-105682059D02*
X274730534Y-105680729D01*
X274730534Y-105680729D02*
X274655020Y-105641310D01*
X274655020Y-105641310D02*
X274617595Y-105602556D01*
X274617595Y-105602556D02*
X274580836Y-105525712D01*
X274580836Y-105525712D02*
X274545406Y-105372690D01*
X274545406Y-105372690D02*
X274508646Y-105295846D01*
X274508646Y-105295846D02*
X274471221Y-105257092D01*
X274471221Y-105257092D02*
X274395707Y-105217672D01*
X274395707Y-105217672D02*
X274319528Y-105216343D01*
X274319528Y-105216343D02*
X274242685Y-105253102D01*
X274242685Y-105253102D02*
X274203930Y-105290527D01*
X274203930Y-105290527D02*
X274164511Y-105366041D01*
X274164511Y-105366041D02*
X274161187Y-105556488D01*
X274161187Y-105556488D02*
X274197282Y-105671421D01*
D11*
%TO.C,D1*%
X143815501Y-143543249D02*
X144311774Y-143482314D01*
X143864248Y-143940267D02*
X143219973Y-143616370D01*
X143766753Y-143146230D02*
X143864248Y-143940267D01*
X143219973Y-143616370D02*
X143766753Y-143146230D01*
X143219973Y-143616370D02*
X143287001Y-144162271D01*
X143219973Y-143616370D02*
X143152945Y-143070470D01*
X142822954Y-143665118D02*
X143219973Y-143616370D01*
%TO.C,D2*%
X141378114Y-123692326D02*
X141874387Y-123631391D01*
X141426861Y-124089344D02*
X140782586Y-123765447D01*
X141329366Y-123295307D02*
X141426861Y-124089344D01*
X140782586Y-123765447D02*
X141329366Y-123295307D01*
X140782586Y-123765447D02*
X140849614Y-124311348D01*
X140782586Y-123765447D02*
X140715558Y-123219547D01*
X140385567Y-123814195D02*
X140782586Y-123765447D01*
%TO.C,D3*%
X138940727Y-103841403D02*
X139437000Y-103780468D01*
X138989474Y-104238421D02*
X138345199Y-103914524D01*
X138891979Y-103444384D02*
X138989474Y-104238421D01*
X138345199Y-103914524D02*
X138891979Y-103444384D01*
X138345199Y-103914524D02*
X138412227Y-104460425D01*
X138345199Y-103914524D02*
X138278171Y-103368624D01*
X137948180Y-103963272D02*
X138345199Y-103914524D01*
%TO.C,D4*%
X165475495Y-147634052D02*
X165971768Y-147573117D01*
X165524242Y-148031070D02*
X164879967Y-147707173D01*
X165426747Y-147237033D02*
X165524242Y-148031070D01*
X164879967Y-147707173D02*
X165426747Y-147237033D01*
X164879967Y-147707173D02*
X164946995Y-148253074D01*
X164879967Y-147707173D02*
X164812939Y-147161273D01*
X164482948Y-147755921D02*
X164879967Y-147707173D01*
%TO.C,D5*%
X163038108Y-127783129D02*
X163534381Y-127722194D01*
X163086855Y-128180147D02*
X162442580Y-127856250D01*
X162989360Y-127386110D02*
X163086855Y-128180147D01*
X162442580Y-127856250D02*
X162989360Y-127386110D01*
X162442580Y-127856250D02*
X162509608Y-128402151D01*
X162442580Y-127856250D02*
X162375552Y-127310350D01*
X162045561Y-127904998D02*
X162442580Y-127856250D01*
%TO.C,D6*%
X160600721Y-107932206D02*
X161096994Y-107871271D01*
X160649468Y-108329224D02*
X160005193Y-108005327D01*
X160551973Y-107535187D02*
X160649468Y-108329224D01*
X160005193Y-108005327D02*
X160551973Y-107535187D01*
X160005193Y-108005327D02*
X160072221Y-108551228D01*
X160005193Y-108005327D02*
X159938165Y-107459427D01*
X159608174Y-108054075D02*
X160005193Y-108005327D01*
%TO.C,D7*%
X158163334Y-88081283D02*
X158659607Y-88020348D01*
X158212081Y-88478301D02*
X157567806Y-88154404D01*
X158114586Y-87684264D02*
X158212081Y-88478301D01*
X157567806Y-88154404D02*
X158114586Y-87684264D01*
X157567806Y-88154404D02*
X157634834Y-88700305D01*
X157567806Y-88154404D02*
X157500778Y-87608504D01*
X157170787Y-88203152D02*
X157567806Y-88154404D01*
%TO.C,D8*%
X185363470Y-140159865D02*
X185862785Y-140133697D01*
X185384405Y-140559317D02*
X184764293Y-140191267D01*
X185342536Y-139760413D02*
X185384405Y-140559317D01*
X184764293Y-140191267D02*
X185342536Y-139760413D01*
X184764293Y-140191267D02*
X184793077Y-140740513D01*
X184764293Y-140191267D02*
X184735508Y-139642020D01*
X184364841Y-140212201D02*
X184764293Y-140191267D01*
%TO.C,D9*%
X184316751Y-120187275D02*
X184816066Y-120161107D01*
X184337686Y-120586727D02*
X183717574Y-120218677D01*
X184295817Y-119787823D02*
X184337686Y-120586727D01*
X183717574Y-120218677D02*
X184295817Y-119787823D01*
X183717574Y-120218677D02*
X183746358Y-120767923D01*
X183717574Y-120218677D02*
X183688789Y-119669430D01*
X183318122Y-120239611D02*
X183717574Y-120218677D01*
%TO.C,D10*%
X183270032Y-100214684D02*
X183769347Y-100188516D01*
X183290967Y-100614136D02*
X182670855Y-100246086D01*
X183249098Y-99815232D02*
X183290967Y-100614136D01*
X182670855Y-100246086D02*
X183249098Y-99815232D01*
X182670855Y-100246086D02*
X182699639Y-100795332D01*
X182670855Y-100246086D02*
X182642070Y-99696839D01*
X182271403Y-100267020D02*
X182670855Y-100246086D01*
%TO.C,D11*%
X182223313Y-80242093D02*
X182722628Y-80215925D01*
X182244248Y-80641545D02*
X181624136Y-80273495D01*
X182202379Y-79842641D02*
X182244248Y-80641545D01*
X181624136Y-80273495D02*
X182202379Y-79842641D01*
X181624136Y-80273495D02*
X181652920Y-80822741D01*
X181624136Y-80273495D02*
X181595351Y-79724248D01*
X181224684Y-80294429D02*
X181624136Y-80273495D01*
%TO.C,D12*%
X205488862Y-129597368D02*
X205988786Y-129606094D01*
X205481881Y-129997307D02*
X204888953Y-129586897D01*
X205495843Y-129197429D02*
X205481881Y-129997307D01*
X204888953Y-129586897D02*
X205495843Y-129197429D01*
X204888953Y-129586897D02*
X204879354Y-130136813D01*
X204888953Y-129586897D02*
X204898552Y-129036980D01*
X204489014Y-129579916D02*
X204888953Y-129586897D01*
%TO.C,D13*%
X205837910Y-109600414D02*
X206337834Y-109609140D01*
X205830929Y-110000353D02*
X205238001Y-109589943D01*
X205844891Y-109200475D02*
X205830929Y-110000353D01*
X205238001Y-109589943D02*
X205844891Y-109200475D01*
X205238001Y-109589943D02*
X205228402Y-110139859D01*
X205238001Y-109589943D02*
X205247600Y-109040026D01*
X204838062Y-109582962D02*
X205238001Y-109589943D01*
%TO.C,D14*%
X206186958Y-89603460D02*
X206686882Y-89612186D01*
X206179977Y-90003399D02*
X205587049Y-89592989D01*
X206193939Y-89203521D02*
X206179977Y-90003399D01*
X205587049Y-89592989D02*
X206193939Y-89203521D01*
X205587049Y-89592989D02*
X205577450Y-90142905D01*
X205587049Y-89592989D02*
X205596648Y-89043072D01*
X205187110Y-89586008D02*
X205587049Y-89592989D01*
%TO.C,D15*%
X206536006Y-69606506D02*
X207035930Y-69615232D01*
X206529025Y-70006445D02*
X205936097Y-69596035D01*
X206542987Y-69206567D02*
X206529025Y-70006445D01*
X205936097Y-69596035D02*
X206542987Y-69206567D01*
X205936097Y-69596035D02*
X205926498Y-70145951D01*
X205936097Y-69596035D02*
X205945696Y-69046118D01*
X205536158Y-69589054D02*
X205936097Y-69596035D01*
%TO.C,D16*%
X226319866Y-139462421D02*
X226819790Y-139471147D01*
X226312885Y-139862360D02*
X225719957Y-139451950D01*
X226326847Y-139062482D02*
X226312885Y-139862360D01*
X225719957Y-139451950D02*
X226326847Y-139062482D01*
X225719957Y-139451950D02*
X225710358Y-140001866D01*
X225719957Y-139451950D02*
X225729556Y-138902033D01*
X225320018Y-139444969D02*
X225719957Y-139451950D01*
%TO.C,D17*%
X226668914Y-119465467D02*
X227168838Y-119474193D01*
X226661933Y-119865406D02*
X226069005Y-119454996D01*
X226675895Y-119065528D02*
X226661933Y-119865406D01*
X226069005Y-119454996D02*
X226675895Y-119065528D01*
X226069005Y-119454996D02*
X226059406Y-120004912D01*
X226069005Y-119454996D02*
X226078604Y-118905079D01*
X225669066Y-119448015D02*
X226069005Y-119454996D01*
%TO.C,D18*%
X227017962Y-99468513D02*
X227517886Y-99477239D01*
X227010981Y-99868452D02*
X226418053Y-99458042D01*
X227024943Y-99068574D02*
X227010981Y-99868452D01*
X226418053Y-99458042D02*
X227024943Y-99068574D01*
X226418053Y-99458042D02*
X226408454Y-100007958D01*
X226418053Y-99458042D02*
X226427652Y-98908125D01*
X226018114Y-99451061D02*
X226418053Y-99458042D01*
%TO.C,D19*%
X227367010Y-79471559D02*
X227866934Y-79480285D01*
X227360029Y-79871498D02*
X226767101Y-79461088D01*
X227373991Y-79071620D02*
X227360029Y-79871498D01*
X226767101Y-79461088D02*
X227373991Y-79071620D01*
X226767101Y-79461088D02*
X226757502Y-80011004D01*
X226767101Y-79461088D02*
X226776700Y-78911171D01*
X226367162Y-79454107D02*
X226767101Y-79461088D01*
%TO.C,D20*%
X247233768Y-144578198D02*
X247733692Y-144586924D01*
X247226787Y-144978137D02*
X246633859Y-144567727D01*
X247240749Y-144178259D02*
X247226787Y-144978137D01*
X246633859Y-144567727D02*
X247240749Y-144178259D01*
X246633859Y-144567727D02*
X246624260Y-145117643D01*
X246633859Y-144567727D02*
X246643458Y-144017810D01*
X246233920Y-144560746D02*
X246633859Y-144567727D01*
%TO.C,D21*%
X247582817Y-124581244D02*
X248082741Y-124589970D01*
X247575836Y-124981183D02*
X246982908Y-124570773D01*
X247589798Y-124181305D02*
X247575836Y-124981183D01*
X246982908Y-124570773D02*
X247589798Y-124181305D01*
X246982908Y-124570773D02*
X246973309Y-125120689D01*
X246982908Y-124570773D02*
X246992507Y-124020856D01*
X246582969Y-124563792D02*
X246982908Y-124570773D01*
%TO.C,D22*%
X247931865Y-104584290D02*
X248431789Y-104593016D01*
X247924884Y-104984229D02*
X247331956Y-104573819D01*
X247938846Y-104184351D02*
X247924884Y-104984229D01*
X247331956Y-104573819D02*
X247938846Y-104184351D01*
X247331956Y-104573819D02*
X247322357Y-105123735D01*
X247331956Y-104573819D02*
X247341555Y-104023902D01*
X246932017Y-104566838D02*
X247331956Y-104573819D01*
%TO.C,D23*%
X248280913Y-84587336D02*
X248780837Y-84596062D01*
X248273932Y-84987275D02*
X247681004Y-84576865D01*
X248287894Y-84187397D02*
X248273932Y-84987275D01*
X247681004Y-84576865D02*
X248287894Y-84187397D01*
X247681004Y-84576865D02*
X247671405Y-85126781D01*
X247681004Y-84576865D02*
X247690603Y-84026948D01*
X247281065Y-84569884D02*
X247681004Y-84576865D01*
%TO.C,D24*%
X223267102Y-153158467D02*
X222769841Y-153106203D01*
X223308913Y-152760658D02*
X223863815Y-153221184D01*
X223225290Y-153556276D02*
X223308913Y-152760658D01*
X223863815Y-153221184D02*
X223225290Y-153556276D01*
X223863815Y-153221184D02*
X223921305Y-152674197D01*
X223863815Y-153221184D02*
X223806324Y-153768171D01*
X224261623Y-153262995D02*
X223863815Y-153221184D01*
%TO.C,D25*%
X246465036Y-158686388D02*
X245998246Y-158507204D01*
X246608383Y-158312956D02*
X247025184Y-158901409D01*
X246321689Y-159059820D02*
X246608383Y-158312956D01*
X247025184Y-158901409D02*
X246321689Y-159059820D01*
X247025184Y-158901409D02*
X247222287Y-158387940D01*
X247025184Y-158901409D02*
X246828082Y-159414878D01*
X247398616Y-159044756D02*
X247025184Y-158901409D01*
%TO.C,D26*%
X267881504Y-170477327D02*
X267476995Y-170183434D01*
X268116618Y-170153720D02*
X268366914Y-170829998D01*
X267646390Y-170800933D02*
X268116618Y-170153720D01*
X268366914Y-170829998D02*
X267646390Y-170800933D01*
X268366914Y-170829998D02*
X268690196Y-170385038D01*
X268366914Y-170829998D02*
X268043632Y-171274957D01*
X268690521Y-171065112D02*
X268366914Y-170829998D01*
D12*
%TO.C,MCU1*%
X278421758Y-104856454D02*
X278998037Y-71841483D01*
X260644466Y-104546150D02*
X278421758Y-104856454D01*
X261220745Y-71531179D02*
X260644466Y-104546150D01*
X278998037Y-71841483D02*
X261220745Y-71531179D01*
%TD*%
D13*
%TO.C,MCU1*%
X277661737Y-75628738D03*
X277617407Y-78168351D03*
X277573078Y-80707964D03*
X277528749Y-83247577D03*
X277484420Y-85787191D03*
X277440091Y-88326804D03*
X277395762Y-90866417D03*
X277351433Y-93406030D03*
X277307104Y-95945643D03*
X277262775Y-98485256D03*
X277218445Y-101024869D03*
X277174116Y-103564483D03*
X261936437Y-103298508D03*
X261980767Y-100758895D03*
X262025096Y-98219282D03*
X262069425Y-95679669D03*
X262113754Y-93140055D03*
X262158083Y-90600442D03*
X262202412Y-88060829D03*
X262246741Y-85521216D03*
X262291070Y-82981603D03*
X262335399Y-80441990D03*
X262379729Y-77902377D03*
X262424058Y-75362763D03*
X264564709Y-98263611D03*
X267104322Y-98307940D03*
X269643935Y-98352269D03*
%TD*%
M02*
