%TF.GenerationSoftware,KiCad,Pcbnew,9.0.0*%
%TF.CreationDate,2025-03-06T12:11:22-05:00*%
%TF.ProjectId,proto1,70726f74-6f31-42e6-9b69-6361645f7063,v1.0.0*%
%TF.SameCoordinates,Original*%
%TF.FileFunction,Copper,L2,Bot*%
%TF.FilePolarity,Positive*%
%FSLAX46Y46*%
G04 Gerber Fmt 4.6, Leading zero omitted, Abs format (unit mm)*
G04 Created by KiCad (PCBNEW 9.0.0) date 2025-03-06 12:11:22*
%MOMM*%
%LPD*%
G01*
G04 APERTURE LIST*
G04 Aperture macros list*
%AMHorizOval*
0 Thick line with rounded ends*
0 $1 width*
0 $2 $3 position (X,Y) of the first rounded end (center of the circle)*
0 $4 $5 position (X,Y) of the second rounded end (center of the circle)*
0 Add line between two ends*
20,1,$1,$2,$3,$4,$5,0*
0 Add two circle primitives to create the rounded ends*
1,1,$1,$2,$3*
1,1,$1,$4,$5*%
%AMRotRect*
0 Rectangle, with rotation*
0 The origin of the aperture is its center*
0 $1 length*
0 $2 width*
0 $3 Rotation angle, in degrees counterclockwise*
0 Add horizontal line*
21,1,$1,$2,0,0,$3*%
G04 Aperture macros list end*
%TA.AperFunction,SMDPad,CuDef*%
%ADD10RotRect,2.550000X2.500000X7.000000*%
%TD*%
%TA.AperFunction,SMDPad,CuDef*%
%ADD11RotRect,2.550000X2.500000X3.000000*%
%TD*%
%TA.AperFunction,SMDPad,CuDef*%
%ADD12RotRect,2.550000X2.500000X359.000000*%
%TD*%
%TA.AperFunction,SMDPad,CuDef*%
%ADD13RotRect,2.550000X2.500000X174.000000*%
%TD*%
%TA.AperFunction,SMDPad,CuDef*%
%ADD14RotRect,2.550000X2.500000X159.000000*%
%TD*%
%TA.AperFunction,SMDPad,CuDef*%
%ADD15RotRect,2.550000X2.500000X144.000000*%
%TD*%
%TA.AperFunction,SMDPad,CuDef*%
%ADD16RotRect,0.900000X1.200000X7.000000*%
%TD*%
%TA.AperFunction,ComponentPad*%
%ADD17RotRect,1.778000X1.778000X7.000000*%
%TD*%
%TA.AperFunction,ComponentPad*%
%ADD18C,1.905000*%
%TD*%
%TA.AperFunction,SMDPad,CuDef*%
%ADD19RotRect,0.900000X1.200000X3.000000*%
%TD*%
%TA.AperFunction,ComponentPad*%
%ADD20RotRect,1.778000X1.778000X3.000000*%
%TD*%
%TA.AperFunction,SMDPad,CuDef*%
%ADD21RotRect,0.900000X1.200000X359.000000*%
%TD*%
%TA.AperFunction,ComponentPad*%
%ADD22RotRect,1.778000X1.778000X359.000000*%
%TD*%
%TA.AperFunction,SMDPad,CuDef*%
%ADD23RotRect,0.900000X1.200000X174.000000*%
%TD*%
%TA.AperFunction,ComponentPad*%
%ADD24RotRect,1.778000X1.778000X174.000000*%
%TD*%
%TA.AperFunction,SMDPad,CuDef*%
%ADD25RotRect,0.900000X1.200000X159.000000*%
%TD*%
%TA.AperFunction,ComponentPad*%
%ADD26RotRect,1.778000X1.778000X159.000000*%
%TD*%
%TA.AperFunction,SMDPad,CuDef*%
%ADD27RotRect,0.900000X1.200000X144.000000*%
%TD*%
%TA.AperFunction,ComponentPad*%
%ADD28RotRect,1.778000X1.778000X144.000000*%
%TD*%
%TA.AperFunction,ComponentPad*%
%ADD29C,1.752600*%
%TD*%
%TA.AperFunction,ComponentPad*%
%ADD30HorizOval,1.700000X0.000000X0.000000X0.000000X0.000000X0*%
%TD*%
%TA.AperFunction,ComponentPad*%
%ADD31RotRect,1.700000X1.700000X359.000000*%
%TD*%
%TA.AperFunction,ComponentPad*%
%ADD32RotRect,1.200000X1.700000X89.000000*%
%TD*%
%TA.AperFunction,ComponentPad*%
%ADD33HorizOval,1.200000X-0.249962X0.004363X0.249962X-0.004363X0*%
%TD*%
%TA.AperFunction,ComponentPad*%
%ADD34C,2.600000*%
%TD*%
%TA.AperFunction,ConnectorPad*%
%ADD35C,4.400000*%
%TD*%
G04 APERTURE END LIST*
D10*
%TO.P,S1,1*%
%TO.N,P113*%
X135616279Y-136953363D03*
%TO.P,S1,2*%
%TO.N,outer_home*%
X148137375Y-132856891D03*
%TD*%
%TO.P,S2,1*%
%TO.N,P113*%
X133178892Y-117102440D03*
%TO.P,S2,2*%
%TO.N,outer_num*%
X145699988Y-113005968D03*
%TD*%
%TO.P,S3,1*%
%TO.N,P113*%
X130741505Y-97251517D03*
%TO.P,S3,2*%
%TO.N,outer_top*%
X143262601Y-93155045D03*
%TD*%
%TO.P,S4,1*%
%TO.N,P111*%
X157276273Y-141044166D03*
%TO.P,S4,2*%
%TO.N,pinky_bottom*%
X169797369Y-136947694D03*
%TD*%
%TO.P,S5,1*%
%TO.N,P111*%
X154838886Y-121193243D03*
%TO.P,S5,2*%
%TO.N,pinky_home*%
X167359982Y-117096771D03*
%TD*%
%TO.P,S6,1*%
%TO.N,P111*%
X152401499Y-101342320D03*
%TO.P,S6,2*%
%TO.N,pinky_num*%
X164922595Y-97245848D03*
%TD*%
%TO.P,S7,1*%
%TO.N,P111*%
X149964112Y-81491397D03*
%TO.P,S7,2*%
%TO.N,pinky_top*%
X162485208Y-77394925D03*
%TD*%
D11*
%TO.P,S8,1*%
%TO.N,P010*%
X177643909Y-133014083D03*
%TO.P,S8,2*%
%TO.N,ring_bottom*%
X190420260Y-129801017D03*
%TD*%
%TO.P,S9,1*%
%TO.N,P010*%
X176597190Y-113041492D03*
%TO.P,S9,2*%
%TO.N,ring_home*%
X189373541Y-109828426D03*
%TD*%
%TO.P,S10,1*%
%TO.N,P010*%
X175550471Y-93068901D03*
%TO.P,S10,2*%
%TO.N,ring_num*%
X188326822Y-89855835D03*
%TD*%
%TO.P,S11,1*%
%TO.N,P010*%
X174503752Y-73096311D03*
%TO.P,S11,2*%
%TO.N,ring_top*%
X187280103Y-69883245D03*
%TD*%
D12*
%TO.P,S12,1*%
%TO.N,P009*%
X198286570Y-121930503D03*
%TO.P,S12,2*%
%TO.N,middle_bottom*%
X211255930Y-119616497D03*
%TD*%
%TO.P,S13,1*%
%TO.N,P009*%
X198635618Y-101933549D03*
%TO.P,S13,2*%
%TO.N,middle_home*%
X211604978Y-99619543D03*
%TD*%
%TO.P,S14,1*%
%TO.N,P009*%
X198984666Y-81936595D03*
%TO.P,S14,2*%
%TO.N,middle_num*%
X211954026Y-79622589D03*
%TD*%
%TO.P,S15,1*%
%TO.N,P009*%
X199333714Y-61939641D03*
%TO.P,S15,2*%
%TO.N,middle_top*%
X212303074Y-59625635D03*
%TD*%
%TO.P,S16,1*%
%TO.N,P104*%
X219117574Y-131795557D03*
%TO.P,S16,2*%
%TO.N,index_bottom*%
X232086934Y-129481551D03*
%TD*%
%TO.P,S17,1*%
%TO.N,P104*%
X219466622Y-111798603D03*
%TO.P,S17,2*%
%TO.N,index_home*%
X232435982Y-109484597D03*
%TD*%
%TO.P,S18,1*%
%TO.N,P104*%
X219815670Y-91801649D03*
%TO.P,S18,2*%
%TO.N,index_num*%
X232785030Y-89487643D03*
%TD*%
%TO.P,S19,1*%
%TO.N,P104*%
X220164718Y-71804695D03*
%TO.P,S19,2*%
%TO.N,index_top*%
X233134078Y-69490689D03*
%TD*%
%TO.P,S20,1*%
%TO.N,P008*%
X240031476Y-136911334D03*
%TO.P,S20,2*%
%TO.N,inner_bottom*%
X253000836Y-134597328D03*
%TD*%
%TO.P,S21,1*%
%TO.N,P008*%
X240380525Y-116914380D03*
%TO.P,S21,2*%
%TO.N,inner_home*%
X253349885Y-114600374D03*
%TD*%
%TO.P,S22,1*%
%TO.N,P008*%
X240729573Y-96917426D03*
%TO.P,S22,2*%
%TO.N,inner_num*%
X253698933Y-94603420D03*
%TD*%
%TO.P,S23,1*%
%TO.N,P008*%
X241078621Y-76920472D03*
%TO.P,S23,2*%
%TO.N,inner_top*%
X254047981Y-74606466D03*
%TD*%
D13*
%TO.P,S24,1*%
%TO.N,P009*%
X229773775Y-161423878D03*
%TO.P,S24,2*%
%TO.N,layer_cluster*%
X216652088Y-162598724D03*
%TD*%
D14*
%TO.P,S25,1*%
%TO.N,P104*%
X250610755Y-168354213D03*
%TO.P,S25,2*%
%TO.N,layer2_cluster*%
X237632106Y-166092885D03*
%TD*%
D15*
%TO.P,S26,1*%
%TO.N,P008*%
X269383742Y-180888720D03*
%TO.P,S26,2*%
%TO.N,space_cluster*%
X257432605Y-175345323D03*
%TD*%
D16*
%TO.P,D1,2*%
%TO.N,outer_home*%
X145205065Y-143372632D03*
%TO.P,D1,1*%
%TO.N,P002*%
X141929663Y-143774800D03*
D17*
X139785763Y-144038038D03*
D18*
%TO.P,D1,2*%
%TO.N,outer_home*%
X147348965Y-143109394D03*
%TD*%
D16*
%TO.P,D2,2*%
%TO.N,outer_num*%
X142767678Y-123521709D03*
%TO.P,D2,1*%
%TO.N,P029*%
X139492276Y-123923877D03*
D17*
X137348376Y-124187115D03*
D18*
%TO.P,D2,2*%
%TO.N,outer_num*%
X144911578Y-123258471D03*
%TD*%
D16*
%TO.P,D3,2*%
%TO.N,outer_top*%
X140330291Y-103670786D03*
%TO.P,D3,1*%
%TO.N,P031*%
X137054889Y-104072954D03*
D17*
X134910989Y-104336192D03*
D18*
%TO.P,D3,2*%
%TO.N,outer_top*%
X142474191Y-103407548D03*
%TD*%
D16*
%TO.P,D4,2*%
%TO.N,pinky_bottom*%
X166865059Y-147463435D03*
%TO.P,D4,1*%
%TO.N,P115*%
X163589657Y-147865603D03*
D17*
X161445757Y-148128841D03*
D18*
%TO.P,D4,2*%
%TO.N,pinky_bottom*%
X169008959Y-147200197D03*
%TD*%
D16*
%TO.P,D5,2*%
%TO.N,pinky_home*%
X164427672Y-127612512D03*
%TO.P,D5,1*%
%TO.N,P002*%
X161152270Y-128014680D03*
D17*
X159008370Y-128277918D03*
D18*
%TO.P,D5,2*%
%TO.N,pinky_home*%
X166571572Y-127349274D03*
%TD*%
D16*
%TO.P,D6,2*%
%TO.N,pinky_num*%
X161990285Y-107761589D03*
%TO.P,D6,1*%
%TO.N,P029*%
X158714883Y-108163757D03*
D17*
X156570983Y-108426995D03*
D18*
%TO.P,D6,2*%
%TO.N,pinky_num*%
X164134185Y-107498351D03*
%TD*%
D16*
%TO.P,D7,2*%
%TO.N,pinky_top*%
X159552898Y-87910666D03*
%TO.P,D7,1*%
%TO.N,P031*%
X156277496Y-88312834D03*
D17*
X154133596Y-88576072D03*
D18*
%TO.P,D7,2*%
%TO.N,pinky_top*%
X161696798Y-87647428D03*
%TD*%
D19*
%TO.P,D8,2*%
%TO.N,ring_bottom*%
X186761552Y-140086595D03*
%TO.P,D8,1*%
%TO.N,P115*%
X183466074Y-140259303D03*
D20*
X181309034Y-140372349D03*
D18*
%TO.P,D8,2*%
%TO.N,ring_bottom*%
X188918592Y-139973549D03*
%TD*%
D19*
%TO.P,D9,2*%
%TO.N,ring_home*%
X185714833Y-120114005D03*
%TO.P,D9,1*%
%TO.N,P002*%
X182419355Y-120286713D03*
D20*
X180262315Y-120399759D03*
D18*
%TO.P,D9,2*%
%TO.N,ring_home*%
X187871873Y-120000959D03*
%TD*%
D19*
%TO.P,D10,2*%
%TO.N,ring_num*%
X184668114Y-100141414D03*
%TO.P,D10,1*%
%TO.N,P029*%
X181372636Y-100314122D03*
D20*
X179215596Y-100427168D03*
D18*
%TO.P,D10,2*%
%TO.N,ring_num*%
X186825154Y-100028368D03*
%TD*%
D19*
%TO.P,D11,2*%
%TO.N,ring_top*%
X183621395Y-80168823D03*
%TO.P,D11,1*%
%TO.N,P031*%
X180325917Y-80341531D03*
D20*
X178168877Y-80454577D03*
D18*
%TO.P,D11,2*%
%TO.N,ring_top*%
X185778435Y-80055777D03*
%TD*%
D21*
%TO.P,D12,2*%
%TO.N,middle_bottom*%
X206888649Y-129621801D03*
%TO.P,D12,1*%
%TO.N,P115*%
X203589151Y-129564209D03*
D22*
X201429480Y-129526511D03*
D18*
%TO.P,D12,2*%
%TO.N,middle_bottom*%
X209048320Y-129659499D03*
%TD*%
D21*
%TO.P,D13,2*%
%TO.N,middle_home*%
X207237697Y-109624847D03*
%TO.P,D13,1*%
%TO.N,P002*%
X203938199Y-109567255D03*
D22*
X201778528Y-109529557D03*
D18*
%TO.P,D13,2*%
%TO.N,middle_home*%
X209397368Y-109662545D03*
%TD*%
D21*
%TO.P,D14,2*%
%TO.N,middle_num*%
X207586745Y-89627893D03*
%TO.P,D14,1*%
%TO.N,P029*%
X204287247Y-89570301D03*
D22*
X202127576Y-89532603D03*
D18*
%TO.P,D14,2*%
%TO.N,middle_num*%
X209746416Y-89665591D03*
%TD*%
D21*
%TO.P,D15,2*%
%TO.N,middle_top*%
X207935793Y-69630939D03*
%TO.P,D15,1*%
%TO.N,P031*%
X204636295Y-69573347D03*
D22*
X202476624Y-69535649D03*
D18*
%TO.P,D15,2*%
%TO.N,middle_top*%
X210095464Y-69668637D03*
%TD*%
D21*
%TO.P,D16,2*%
%TO.N,index_bottom*%
X227719653Y-139486854D03*
%TO.P,D16,1*%
%TO.N,P115*%
X224420155Y-139429262D03*
D22*
X222260484Y-139391564D03*
D18*
%TO.P,D16,2*%
%TO.N,index_bottom*%
X229879324Y-139524552D03*
%TD*%
D21*
%TO.P,D17,2*%
%TO.N,index_home*%
X228068701Y-119489900D03*
%TO.P,D17,1*%
%TO.N,P002*%
X224769203Y-119432308D03*
D22*
X222609532Y-119394610D03*
D18*
%TO.P,D17,2*%
%TO.N,index_home*%
X230228372Y-119527598D03*
%TD*%
D21*
%TO.P,D18,2*%
%TO.N,index_num*%
X228417749Y-99492946D03*
%TO.P,D18,1*%
%TO.N,P029*%
X225118251Y-99435354D03*
D22*
X222958580Y-99397656D03*
D18*
%TO.P,D18,2*%
%TO.N,index_num*%
X230577420Y-99530644D03*
%TD*%
D21*
%TO.P,D19,2*%
%TO.N,index_top*%
X228766797Y-79495992D03*
%TO.P,D19,1*%
%TO.N,P031*%
X225467299Y-79438400D03*
D22*
X223307628Y-79400702D03*
D18*
%TO.P,D19,2*%
%TO.N,index_top*%
X230926468Y-79533690D03*
%TD*%
D21*
%TO.P,D20,2*%
%TO.N,inner_bottom*%
X248633555Y-144602631D03*
%TO.P,D20,1*%
%TO.N,P115*%
X245334057Y-144545039D03*
D22*
X243174386Y-144507341D03*
D18*
%TO.P,D20,2*%
%TO.N,inner_bottom*%
X250793226Y-144640329D03*
%TD*%
D21*
%TO.P,D21,2*%
%TO.N,inner_home*%
X248982604Y-124605677D03*
%TO.P,D21,1*%
%TO.N,P002*%
X245683106Y-124548085D03*
D22*
X243523435Y-124510387D03*
D18*
%TO.P,D21,2*%
%TO.N,inner_home*%
X251142275Y-124643375D03*
%TD*%
D21*
%TO.P,D22,2*%
%TO.N,inner_num*%
X249331652Y-104608723D03*
%TO.P,D22,1*%
%TO.N,P029*%
X246032154Y-104551131D03*
D22*
X243872483Y-104513433D03*
D18*
%TO.P,D22,2*%
%TO.N,inner_num*%
X251491323Y-104646421D03*
%TD*%
D21*
%TO.P,D23,2*%
%TO.N,inner_top*%
X249680700Y-84611769D03*
%TO.P,D23,1*%
%TO.N,P031*%
X246381202Y-84554177D03*
D22*
X244221531Y-84516479D03*
D18*
%TO.P,D23,2*%
%TO.N,inner_top*%
X251840371Y-84649467D03*
%TD*%
D23*
%TO.P,D24,2*%
%TO.N,layer_cluster*%
X221874771Y-153012127D03*
%TO.P,D24,1*%
%TO.N,P106*%
X225156693Y-153357071D03*
D24*
X227304860Y-153582852D03*
D18*
%TO.P,D24,2*%
%TO.N,layer_cluster*%
X219726604Y-152786346D03*
%TD*%
D25*
%TO.P,D25,2*%
%TO.N,layer2_cluster*%
X245158023Y-158184673D03*
%TO.P,D25,1*%
%TO.N,P106*%
X248238839Y-159367287D03*
D26*
X250255372Y-160141362D03*
D18*
%TO.P,D25,2*%
%TO.N,layer2_cluster*%
X243141490Y-157410598D03*
%TD*%
D27*
%TO.P,D26,2*%
%TO.N,space_cluster*%
X266748880Y-169654427D03*
%TO.P,D26,1*%
%TO.N,P106*%
X269418636Y-171594119D03*
D28*
X271166113Y-172863735D03*
D18*
%TO.P,D26,2*%
%TO.N,space_cluster*%
X265001403Y-168384811D03*
%TD*%
D29*
%TO.P,MCU1,1*%
%TO.N,P006*%
X277661737Y-75628738D03*
%TO.P,MCU1,2*%
%TO.N,P008*%
X277617407Y-78168351D03*
%TO.P,MCU1,3*%
%TO.N,GND*%
X277573078Y-80707964D03*
%TO.P,MCU1,4*%
X277528749Y-83247577D03*
%TO.P,MCU1,5*%
%TO.N,P017*%
X277484420Y-85787191D03*
%TO.P,MCU1,6*%
%TO.N,P020*%
X277440091Y-88326804D03*
%TO.P,MCU1,7*%
%TO.N,P022*%
X277395762Y-90866417D03*
%TO.P,MCU1,8*%
%TO.N,P024*%
X277351433Y-93406030D03*
%TO.P,MCU1,9*%
%TO.N,P100*%
X277307104Y-95945643D03*
%TO.P,MCU1,10*%
%TO.N,P011*%
X277262775Y-98485256D03*
%TO.P,MCU1,11*%
%TO.N,P104*%
X277218445Y-101024869D03*
%TO.P,MCU1,12*%
%TO.N,P106*%
X277174116Y-103564483D03*
%TO.P,MCU1,13*%
%TO.N,P009*%
X261936437Y-103298508D03*
%TO.P,MCU1,14*%
%TO.N,P010*%
X261980767Y-100758895D03*
%TO.P,MCU1,15*%
%TO.N,P111*%
X262025096Y-98219282D03*
%TO.P,MCU1,16*%
%TO.N,P113*%
X262069425Y-95679669D03*
%TO.P,MCU1,17*%
%TO.N,P115*%
X262113754Y-93140055D03*
%TO.P,MCU1,18*%
%TO.N,P002*%
X262158083Y-90600442D03*
%TO.P,MCU1,19*%
%TO.N,P029*%
X262202412Y-88060829D03*
%TO.P,MCU1,20*%
%TO.N,P031*%
X262246741Y-85521216D03*
%TO.P,MCU1,21*%
%TO.N,VCC*%
X262291070Y-82981603D03*
%TO.P,MCU1,22*%
%TO.N,RST*%
X262335399Y-80441990D03*
%TO.P,MCU1,23*%
%TO.N,GND*%
X262379729Y-77902377D03*
%TO.P,MCU1,24*%
%TO.N,RAW*%
X262424058Y-75362763D03*
%TO.P,MCU1,31*%
%TO.N,P101*%
X264564709Y-98263611D03*
%TO.P,MCU1,32*%
%TO.N,P102*%
X267104322Y-98307940D03*
%TO.P,MCU1,33*%
%TO.N,P107*%
X269643935Y-98352269D03*
%TD*%
D30*
%TO.P,niceView1,5*%
%TO.N,P100*%
X264410953Y-107072269D03*
%TO.P,niceView1,4*%
%TO.N,P024*%
X266950566Y-107116598D03*
%TO.P,niceView1,3*%
%TO.N,VCC*%
X269490179Y-107160927D03*
D31*
%TO.P,niceView1,2*%
%TO.N,GND*%
X272029792Y-107205256D03*
D30*
%TO.P,niceView1,1*%
%TO.N,P006*%
X274569405Y-107249585D03*
%TD*%
D32*
%TO.P,JST1,1*%
%TO.N,VCC*%
X266482670Y-116159810D03*
D33*
%TO.P,JST1,2*%
%TO.N,GND*%
X266517574Y-114160114D03*
%TD*%
D34*
%TO.P,_1,1*%
%TO.N,N/C*%
X144694655Y-152754768D03*
D35*
X144694655Y-152754768D03*
%TD*%
D34*
%TO.P,_2,1*%
%TO.N,N/C*%
X205077465Y-138841596D03*
D35*
X205077465Y-138841596D03*
%TD*%
D34*
%TO.P,_3,1*%
%TO.N,N/C*%
X268751943Y-149454485D03*
D35*
X268751943Y-149454485D03*
%TD*%
D34*
%TO.P,_4,1*%
%TO.N,N/C*%
X237530185Y-87400139D03*
D35*
X237530185Y-87400139D03*
%TD*%
D34*
%TO.P,_5,1*%
%TO.N,N/C*%
X168954449Y-76681202D03*
D35*
X168954449Y-76681202D03*
%TD*%
M02*
