%TF.GenerationSoftware,KiCad,Pcbnew,9.0.0*%
%TF.CreationDate,2025-03-06T12:11:22-05:00*%
%TF.ProjectId,proto1,70726f74-6f31-42e6-9b69-6361645f7063,v1.0.0*%
%TF.SameCoordinates,Original*%
%TF.FileFunction,Paste,Top*%
%TF.FilePolarity,Positive*%
%FSLAX46Y46*%
G04 Gerber Fmt 4.6, Leading zero omitted, Abs format (unit mm)*
G04 Created by KiCad (PCBNEW 9.0.0) date 2025-03-06 12:11:22*
%MOMM*%
%LPD*%
G01*
G04 APERTURE LIST*
G04 Aperture macros list*
%AMRotRect*
0 Rectangle, with rotation*
0 The origin of the aperture is its center*
0 $1 length*
0 $2 width*
0 $3 Rotation angle, in degrees counterclockwise*
0 Add horizontal line*
21,1,$1,$2,0,0,$3*%
G04 Aperture macros list end*
%ADD10RotRect,2.550000X2.500000X7.000000*%
%ADD11RotRect,2.550000X2.500000X3.000000*%
%ADD12RotRect,2.550000X2.500000X359.000000*%
%ADD13RotRect,2.550000X2.500000X174.000000*%
%ADD14RotRect,2.550000X2.500000X159.000000*%
%ADD15RotRect,2.550000X2.500000X144.000000*%
%ADD16RotRect,0.900000X1.200000X7.000000*%
%ADD17RotRect,0.900000X1.200000X3.000000*%
%ADD18RotRect,0.900000X1.200000X359.000000*%
%ADD19RotRect,0.900000X1.200000X174.000000*%
%ADD20RotRect,0.900000X1.200000X159.000000*%
%ADD21RotRect,0.900000X1.200000X144.000000*%
G04 APERTURE END LIST*
D10*
%TO.C,S1*%
X149680658Y-135226474D03*
X136540466Y-134280812D03*
%TD*%
%TO.C,S2*%
X147243271Y-115375551D03*
X134103079Y-114429889D03*
%TD*%
%TO.C,S3*%
X144805884Y-95524628D03*
X131665692Y-94578966D03*
%TD*%
%TO.C,S4*%
X171340652Y-139317277D03*
X158200460Y-138371615D03*
%TD*%
%TO.C,S5*%
X168903265Y-119466354D03*
X155763073Y-118520692D03*
%TD*%
%TO.C,S6*%
X166465878Y-99615431D03*
X153325686Y-98669769D03*
%TD*%
%TO.C,S7*%
X164028491Y-79764508D03*
X150888299Y-78818846D03*
%TD*%
D11*
%TO.C,S8*%
X191794490Y-132272483D03*
X178752273Y-130412511D03*
%TD*%
%TO.C,S9*%
X190747771Y-112299892D03*
X177705554Y-110439920D03*
%TD*%
%TO.C,S10*%
X189701052Y-92327301D03*
X176658835Y-90467329D03*
%TD*%
%TO.C,S11*%
X188654333Y-72354711D03*
X175612116Y-70494739D03*
%TD*%
D12*
%TO.C,S12*%
X212454412Y-122177803D03*
X199573710Y-119412583D03*
%TD*%
%TO.C,S13*%
X212803460Y-102180849D03*
X199922758Y-99415629D03*
%TD*%
%TO.C,S14*%
X213152508Y-82183895D03*
X200271806Y-79418675D03*
%TD*%
%TO.C,S15*%
X213501556Y-62186941D03*
X200620854Y-59421721D03*
%TD*%
%TO.C,S16*%
X233285416Y-132042857D03*
X220404714Y-129277637D03*
%TD*%
%TO.C,S17*%
X233634464Y-112045903D03*
X220753762Y-109280683D03*
%TD*%
%TO.C,S18*%
X233983512Y-92048949D03*
X221102810Y-89283729D03*
%TD*%
%TO.C,S19*%
X234332560Y-72051995D03*
X221451858Y-69286775D03*
%TD*%
%TO.C,S20*%
X254199318Y-137158634D03*
X241318616Y-134393414D03*
%TD*%
%TO.C,S21*%
X254548367Y-117161680D03*
X241667665Y-114396460D03*
%TD*%
%TO.C,S22*%
X254897415Y-97164726D03*
X242016713Y-94399506D03*
%TD*%
%TO.C,S23*%
X255246463Y-77167772D03*
X242365761Y-74402552D03*
%TD*%
D13*
%TO.C,S24*%
X215681400Y-159942709D03*
X228272082Y-163820035D03*
%TD*%
D14*
%TO.C,S25*%
X237381920Y-163276139D03*
X248540060Y-170280056D03*
%TD*%
D15*
%TO.C,S26*%
X257919971Y-172559803D03*
X266885159Y-182213006D03*
%TD*%
D16*
%TO.C,D1*%
X141929663Y-143774800D03*
X145205065Y-143372632D03*
%TD*%
%TO.C,D2*%
X139492276Y-123923877D03*
X142767678Y-123521709D03*
%TD*%
%TO.C,D3*%
X137054889Y-104072954D03*
X140330291Y-103670786D03*
%TD*%
%TO.C,D4*%
X163589657Y-147865603D03*
X166865059Y-147463435D03*
%TD*%
%TO.C,D5*%
X161152270Y-128014680D03*
X164427672Y-127612512D03*
%TD*%
%TO.C,D6*%
X158714883Y-108163757D03*
X161990285Y-107761589D03*
%TD*%
%TO.C,D7*%
X156277496Y-88312834D03*
X159552898Y-87910666D03*
%TD*%
D17*
%TO.C,D8*%
X183466074Y-140259303D03*
X186761552Y-140086595D03*
%TD*%
%TO.C,D9*%
X182419355Y-120286713D03*
X185714833Y-120114005D03*
%TD*%
%TO.C,D10*%
X181372636Y-100314122D03*
X184668114Y-100141414D03*
%TD*%
%TO.C,D11*%
X180325917Y-80341531D03*
X183621395Y-80168823D03*
%TD*%
D18*
%TO.C,D12*%
X203589151Y-129564209D03*
X206888649Y-129621801D03*
%TD*%
%TO.C,D13*%
X203938199Y-109567255D03*
X207237697Y-109624847D03*
%TD*%
%TO.C,D14*%
X204287247Y-89570301D03*
X207586745Y-89627893D03*
%TD*%
%TO.C,D15*%
X204636295Y-69573347D03*
X207935793Y-69630939D03*
%TD*%
%TO.C,D16*%
X224420155Y-139429262D03*
X227719653Y-139486854D03*
%TD*%
%TO.C,D17*%
X224769203Y-119432308D03*
X228068701Y-119489900D03*
%TD*%
%TO.C,D18*%
X225118251Y-99435354D03*
X228417749Y-99492946D03*
%TD*%
%TO.C,D19*%
X225467299Y-79438400D03*
X228766797Y-79495992D03*
%TD*%
%TO.C,D20*%
X245334057Y-144545039D03*
X248633555Y-144602631D03*
%TD*%
%TO.C,D21*%
X245683106Y-124548085D03*
X248982604Y-124605677D03*
%TD*%
%TO.C,D22*%
X246032154Y-104551131D03*
X249331652Y-104608723D03*
%TD*%
%TO.C,D23*%
X246381202Y-84554177D03*
X249680700Y-84611769D03*
%TD*%
D19*
%TO.C,D24*%
X225156693Y-153357071D03*
X221874771Y-153012127D03*
%TD*%
D20*
%TO.C,D25*%
X248238839Y-159367287D03*
X245158023Y-158184673D03*
%TD*%
D21*
%TO.C,D26*%
X269418636Y-171594119D03*
X266748880Y-169654427D03*
%TD*%
M02*
